<?xml version="1.0" encoding="utf-8" standalone="yes"?>
<!DOCTYPE svg PUBLIC "-//W3C//DTD SVG 1.1//EN" "http://www.w3.org/Graphics/SVG/1.1/DTD/svg11.dtd">
<svg width="972" height="840" viewBox="0 0 972 840" style="fill:none;stroke:none;fill-rule:evenodd;clip-rule:evenodd;stroke-linecap:round;stroke-linejoin:round;stroke-miterlimit:1.5;" version="1.1" xmlns="http://www.w3.org/2000/svg" xmlns:xlink="http://www.w3.org/1999/xlink"><style class="text-font-style fontImports" data-font-family="Arial"></style><rect id="" x="0" y="0" width="972" height="840" style="fill: #ffffff;"></rect><g id="items" style="isolation: isolate"><g id="blend" style="mix-blend-mode: normal"><g id="g-root-tf_2qyb5mj2tq9-fill" data-item-order="5999183520"><g id="tf_2qyb5mj2tq9-fill" stroke="none" fill="#ffffff"><g><path d="M 0 0L 972 0L 972 840L 0 840Z"></path></g></g></g><g id="g-root-ro_13zvg35mj9ssq-fill" data-item-order="5999966736" transform="translate(374, 326)"><g id="ro_13zvg35mj9ssq-fill" stroke="none" fill="#000000"><g><path d="M 34 10L 154 10C 154 10 178 10 178 34L 178 184C 178 184 178 208 154 208L 34 208C 34 208 10 208 10 184L 10 34C 10 34 10 10 34 10"></path></g></g></g><g id="g-root-ro_1lqj2nlmj2tqj-fill" data-item-order="5999989632" transform="translate(214, 566)"><g id="ro_1lqj2nlmj2tqj-fill" stroke="none" fill="#fc7a1e"><g><path d="M 22 10L 190 10C 190 10 202 10 202 22L 202 52C 202 52 202 64 190 64L 22 64C 22 64 10 64 10 52L 10 22C 10 22 10 10 22 10"></path></g></g></g><g id="g-root-ro_1cuvz8xmjb8jp-fill" data-item-order="5999990928" transform="translate(510, 164)"><g id="ro_1cuvz8xmjb8jp-fill" stroke="none" fill="#58cb9c"><g><path d="M 22 10L 166 10C 166 10 178 10 178 22L 178 52C 178 52 178 64 166 64L 22 64C 22 64 10 64 10 52L 10 22C 10 22 10 10 22 10"></path></g></g></g><g id="g-root-ro_9m33lmjgt1o-fill" data-item-order="5999991576" transform="translate(510, 560)"><g id="ro_9m33lmjgt1o-fill" stroke="none" fill="#9cb064"><g><path d="M 22 10L 154 10C 154 10 166 10 166 22L 166 52C 166 52 166 64 154 64L 22 64C 22 64 10 64 10 52L 10 22C 10 22 10 10 22 10"></path></g></g></g><g id="g-root-ro_9593chmjjm6b-fill" data-item-order="5999991576" transform="translate(250, 122)"><g id="ro_9593chmjjm6b-fill" stroke="none" fill="#9a6ab3"><g><path d="M 22 10L 154 10C 154 10 166 10 166 22L 166 52C 166 52 166 64 154 64L 22 64C 22 64 10 64 10 52L 10 22C 10 22 10 10 22 10"></path></g></g></g><g id="g-root-ro_qva8ttmj00lq-fill" data-item-order="5999991576" transform="translate(170, 308)"><g id="ro_qva8ttmj00lq-fill" stroke="none" fill="#2cd4bf"><g><path d="M 22 10L 154 10C 154 10 166 10 166 22L 166 52C 166 52 166 64 154 64L 22 64C 22 64 10 64 10 52L 10 22C 10 22 10 10 22 10"></path></g></g></g><g id="g-root-ro_1lpwiepmje1oj-fill" data-item-order="5999992224" transform="translate(590, 314)"><g id="ro_1lpwiepmje1oj-fill" stroke="none" fill="#dc9131"><g><path d="M 22 10L 142 10C 142 10 154 10 154 22L 154 52C 154 52 154 64 142 64L 22 64C 22 64 10 64 10 52L 10 22C 10 22 10 10 22 10"></path></g></g></g><g id="g-root-cu_18fp1ddmj2sy3-fill" data-item-order="6000000000" transform="translate(364, 176)"></g><g id="g-root-cu_18fp1ddmj2sy6-fill" data-item-order="6000000000" transform="translate(364, 176)"></g><g id="g-root-cu_13zvj8xmj2tqg-fill" data-item-order="6000000000" transform="translate(364, 176)"></g><g id="g-root-cu_1lqj2nlmj2tqk-fill" data-item-order="6000000000" transform="translate(486, 191)"></g><g id="g-root-tx_transfer_m7yyi9mji7f0-fill" data-item-order="6000000000" transform="translate(190, 668)"><g id="tx_transfer_m7yyi9mji7f0-fill" stroke="none" fill="#fc7a1e"><g><text style="font: 20px Arial, Helvetica, sans-serif; white-space: pre;" font-size="20px" font-family="Arial, Helvetica, sans-serif"><tspan x="15.44" y="33" dominant-baseline="ideographic">Transfer Learning</tspan></text></g></g></g><g id="g-root-tx_machinel_1qf34ttmjguf4-fill" data-item-order="6000000000" transform="translate(190, 224)"><g id="tx_machinel_1qf34ttmjguf4-fill" stroke="none" fill="#fc7a1e"><g><text style="font: 20px Arial, Helvetica, sans-serif; white-space: pre;" font-size="20px" font-family="Arial, Helvetica, sans-serif"><tspan x="14.5" y="33" dominant-baseline="ideographic">Machine Learning</tspan></text></g></g></g><g id="g-root-cu_1cvijhtmj2s5q-fill" data-item-order="6000000000" transform="translate(534, 218)"></g><g id="g-root-cu_18fp1ddmj2sy1-fill" data-item-order="6000000000" transform="translate(534, 218)"></g><g id="g-root-tx_unstruct_1uuwmy9mjgtmt-fill" data-item-order="6000000000" transform="translate(558, 230)"><g id="tx_unstruct_1uuwmy9mjgtmt-fill" stroke="none" fill="#fc7a1e"><g><text style="font: 20px Arial, Helvetica, sans-serif; white-space: pre;" font-size="20px" font-family="Arial, Helvetica, sans-serif"><tspan x="14.05" y="33" dominant-baseline="ideographic">Unstructured Feedback</tspan></text></g></g></g><g id="g-root-tx_realtime_1hjg4kxmjgv7t-fill" data-item-order="6000000000" transform="translate(106, 260)"><g id="tx_realtime_1hjg4kxmjgv7t-fill" stroke="none" fill="#fc7a1e"><g><text style="font: 20px Arial, Helvetica, sans-serif; white-space: pre;" font-size="20px" font-family="Arial, Helvetica, sans-serif"><tspan x="14.1" y="33" dominant-baseline="ideographic">Real-Time Data Processing</tspan></text></g></g></g><g id="g-root-tx_manualan_1uuwmy9mjgtmu-fill" data-item-order="6000000000" transform="translate(564, 266)"><g id="tx_manualan_1uuwmy9mjgtmu-fill" stroke="none" fill="#fc7a1e"><g><text style="font: 20px Arial, Helvetica, sans-serif; white-space: pre;" font-size="20px" font-family="Arial, Helvetica, sans-serif"><tspan x="13.16" y="33" dominant-baseline="ideographic">Manual Analysis Limitations</tspan></text></g></g></g><g id="g-root-tx_nlp_1lz9mpdmjgufj-fill" data-item-order="6000000000" transform="translate(310, 188)"><g id="tx_nlp_1lz9mpdmjgufj-fill" stroke="none" fill="#fc7a1e"><g><text style="font: 20px Arial, Helvetica, sans-serif; white-space: pre;" font-size="20px" font-family="Arial, Helvetica, sans-serif"><tspan x="14.55" y="33" dominant-baseline="ideographic">NLP</tspan></text></g></g></g><g id="g-root-tx_issuedet_dcby9dmji8zk-fill" data-item-order="6000000000" transform="translate(552, 662)"><g id="tx_issuedet_dcby9dmji8zk-fill" stroke="none" fill="#fc7a1e"><g><text style="font: 20px Arial, Helvetica, sans-serif; white-space: pre;" font-size="20px" font-family="Arial, Helvetica, sans-serif"><tspan x="17.38" y="33" dominant-baseline="ideographic">Issue Detection Speed</tspan></text></g></g></g><g id="g-root-cu_1hbc1m9mj2rd9-fill" data-item-order="6000000000" transform="translate(326, 335)"></g><g id="g-root-cu_1hbc1m9mj2rd3-fill" data-item-order="6000000000" transform="translate(406, 149)"></g><g id="g-root-tx_semantic_m7yyi9mji7f1-fill" data-item-order="6000000000" transform="translate(190, 704)"><g id="tx_semantic_m7yyi9mji7f1-fill" stroke="none" fill="#fc7a1e"><g><text style="font: 20px Arial, Helvetica, sans-serif; white-space: pre;" font-size="20px" font-family="Arial, Helvetica, sans-serif"><tspan x="15.63" y="33" dominant-baseline="ideographic">Semantic Parsing</tspan></text></g></g></g><g id="g-root-tx_improvem_dcby9dmji8zl-fill" data-item-order="6000000000" transform="translate(558, 698)"><g id="tx_improvem_dcby9dmji8zl-fill" stroke="none" fill="#fc7a1e"><g><text style="font: 20px Arial, Helvetica, sans-serif; white-space: pre;" font-size="20px" font-family="Arial, Helvetica, sans-serif"><tspan x="17.27" y="33" dominant-baseline="ideographic">Improvement Allocation </tspan><tspan x="61.93" y="57" dominant-baseline="ideographic">Effectiveness</tspan></text></g></g></g><g id="g-root-cu_1hbc1m9mj2rd6-fill" data-item-order="6000000000" transform="translate(542, 341)"></g><g id="g-root-tx_datadisc_13ymhwxmji87i-fill" data-item-order="6000000000" transform="translate(134, 374)"><g id="tx_datadisc_13ymhwxmji87i-fill" stroke="none" fill="#fc7a1e"><g><text style="font: 20px Arial, Helvetica, sans-serif; white-space: pre;" font-size="20px" font-family="Arial, Helvetica, sans-serif"><tspan x="14.2" y="33" dominant-baseline="ideographic">Data Discovery</tspan></text></g></g></g><g id="g-root-cu_v4v035mj2s5k-fill" data-item-order="6000000000" transform="translate(277.625, 362)"></g><g id="g-root-cu_zkoi7lmj2rd7-fill" data-item-order="6000000000" transform="translate(284, 362)"></g><g id="g-root-cu_v4v035mj2s5i-fill" data-item-order="6000000000" transform="translate(284, 362)"></g><g id="g-root-cu_v4v035mj2s5m-fill" data-item-order="6000000000" transform="translate(284, 362)"></g><g id="g-root-cu_qp1hypmj2sxw-fill" data-item-order="6000000000" transform="translate(284, 362)"></g><g id="g-root-cu_13zvj8xmj2tqi-fill" data-item-order="6000000000" transform="translate(614, 368)"></g><g id="g-root-cu_13zvj8xmj2tql-fill" data-item-order="6000000000" transform="translate(614, 368)"></g><g id="g-root-cu_zkoi7lmj2rd3-fill" data-item-order="6000000000" transform="translate(614, 368)"></g><g id="g-root-cu_zkoi7lmj2rd5-fill" data-item-order="6000000000" transform="translate(614, 368)"></g><g id="g-root-tx_multicha_1hjg4kxmjgv7u-fill" data-item-order="6000000000" transform="translate(638, 380)"><g id="tx_multicha_1hjg4kxmjgv7u-fill" stroke="none" fill="#fc7a1e"><g><text style="font: 20px Arial, Helvetica, sans-serif; white-space: pre;" font-size="20px" font-family="Arial, Helvetica, sans-serif"><tspan x="12.15" y="33" dominant-baseline="ideographic">Multi-Channel Feedback Analysis</tspan></text></g></g></g><g id="g-root-tx_marketpo_4goy0hmji9sa-fill" data-item-order="6000000000" transform="translate(558, 758)"><g id="tx_marketpo_4goy0hmji9sa-fill" stroke="none" fill="#fc7a1e"><g><text style="font: 20px Arial, Helvetica, sans-serif; white-space: pre;" font-size="20px" font-family="Arial, Helvetica, sans-serif"><tspan x="17.73" y="33" dominant-baseline="ideographic">Market Positioning</tspan></text></g></g></g><g id="g-root-tx_emotiond_1cu9i5tmji7er-fill" data-item-order="6000000000" transform="translate(638, 416)"><g id="tx_emotiond_1cu9i5tmji7er-fill" stroke="none" fill="#fc7a1e"><g><text style="font: 20px Arial, Helvetica, sans-serif; white-space: pre;" font-size="20px" font-family="Arial, Helvetica, sans-serif"><tspan x="12.29" y="33" dominant-baseline="ideographic">Emotion Detection</tspan></text></g></g></g><g id="g-root-tx_platform_ziszshmji8zs-fill" data-item-order="6000000000" transform="translate(92, 446)"><g id="tx_platform_ziszshmji8zs-fill" stroke="none" fill="#fc7a1e"><g><text style="font: 20px Arial, Helvetica, sans-serif; white-space: pre;" font-size="20px" font-family="Arial, Helvetica, sans-serif"><tspan x="12.73" y="33" dominant-baseline="ideographic">Platform Integration</tspan></text></g></g></g><g id="g-root-tx_featurel_1cu9i5tmji7es-fill" data-item-order="6000000000" transform="translate(638, 452)"><g id="tx_featurel_1cu9i5tmji7es-fill" stroke="none" fill="#fc7a1e"><g><text style="font: 20px Arial, Helvetica, sans-serif; white-space: pre;" font-size="20px" font-family="Arial, Helvetica, sans-serif"><tspan x="14.49" y="33" dominant-baseline="ideographic">Feature-Level Sentiment</tspan></text></g></g></g><g id="g-root-tx_dashboar_v2zho1mji9s1-fill" data-item-order="6000000000" transform="translate(110, 482)"><g id="tx_dashboar_v2zho1mji9s1-fill" stroke="none" fill="#fc7a1e"><g><text style="font: 20px Arial, Helvetica, sans-serif; white-space: pre;" font-size="20px" font-family="Arial, Helvetica, sans-serif"><tspan x="16.16" y="33" dominant-baseline="ideographic">Dashboard Setup</tspan></text></g></g></g><g id="g-root-tx_trendrec_13ymhwxmji87h-fill" data-item-order="6000000000" transform="translate(638, 488)"><g id="tx_trendrec_13ymhwxmji87h-fill" stroke="none" fill="#fc7a1e"><g><text style="font: 20px Arial, Helvetica, sans-serif; white-space: pre;" font-size="20px" font-family="Arial, Helvetica, sans-serif"><tspan x="12.66" y="33" dominant-baseline="ideographic">Trend Recognition</tspan></text></g></g></g><g id="g-root-tx_continuo_v2zho1mji9s2-fill" data-item-order="6000000000" transform="translate(50, 518)"><g id="tx_continuo_v2zho1mji9s2-fill" stroke="none" fill="#fc7a1e"><g><text style="font: 20px Arial, Helvetica, sans-serif; white-space: pre;" font-size="20px" font-family="Arial, Helvetica, sans-serif"><tspan x="15.05" y="33" dominant-baseline="ideographic">Continuous Optimization</tspan></text></g></g></g><g id="g-root-cu_1cvijhtmj2s5k-fill" data-item-order="6000000000" transform="translate(406, 524)"></g><g id="g-root-cu_1cvijhtmj2s5n-fill" data-item-order="6000000000" transform="translate(486, 524)"></g><g id="g-root-tx_interact_hs5gdtmji87a-fill" data-item-order="6000000000" transform="translate(142, 740)"><g id="tx_interact_hs5gdtmji87a-fill" stroke="none" fill="#fc7a1e"><g><text style="font: 20px Arial, Helvetica, sans-serif; white-space: pre;" font-size="20px" font-family="Arial, Helvetica, sans-serif"><tspan x="15.16" y="33" dominant-baseline="ideographic">Interactive Dashboards</tspan></text></g></g></g><g id="g-root-tx_aidriven_de7gohmj2s5c-fill" data-item-order="6000000000" transform="translate(224, 38)"><g id="tx_aidriven_de7gohmj2s5c-fill" stroke="none" fill="#000000"><g><text style="font: bold 25px Arial, Helvetica, sans-serif; white-space: pre;" font-weight="bold" font-size="25px" font-family="Arial, Helvetica, sans-serif"><tspan x="14.47" y="42" dominant-baseline="ideographic">AI-Driven Sentiment &amp; Feedback Analysis</tspan></text></g></g></g><g id="g-root-tx_custommo_ziszshmji8zr-fill" data-item-order="6000000000" transform="translate(14, 410)"><g id="tx_custommo_ziszshmji8zr-fill" stroke="none" fill="#fc7a1e"><g><text style="font: 20px Arial, Helvetica, sans-serif; white-space: pre;" font-size="20px" font-family="Arial, Helvetica, sans-serif"><tspan x="15.83" y="33" dominant-baseline="ideographic">Custom Model Development</tspan></text></g></g></g><g id="g-root-tx_neuralne_m7yyi9mji7ez-fill" data-item-order="6000000000" transform="translate(202, 632)"><g id="tx_neuralne_m7yyi9mji7ez-fill" stroke="none" fill="#fc7a1e"><g><text style="font: 20px Arial, Helvetica, sans-serif; white-space: pre;" font-size="20px" font-family="Arial, Helvetica, sans-serif"><tspan x="14.09" y="33" dominant-baseline="ideographic">Neural Networks</tspan></text></g></g></g><g id="g-root-cu_qp1hypmj2sxy-fill" data-item-order="6000000000" transform="translate(364, 620)"></g><g id="g-root-cu_m97zu9mj2tq9-fill" data-item-order="6000000000" transform="translate(364, 620)"></g><g id="g-root-cu_m97zu9mj2tqb-fill" data-item-order="6000000000" transform="translate(364, 620)"></g><g id="g-root-cu_m97zu9mj2tqd-fill" data-item-order="6000000000" transform="translate(364, 620)"></g><g id="g-root-cu_hu0ysxmj2rcy-fill" data-item-order="6000000000" transform="translate(533.6470336914062, 614)"></g><g id="g-root-cu_de7gohmj2rdb-fill" data-item-order="6000000000" transform="translate(534, 614)"></g><g id="g-root-cu_hu0ysxmj2rd0-fill" data-item-order="6000000000" transform="translate(534, 614)"></g><g id="g-root-cu_8ydyk1mj2s5q-fill" data-item-order="6000000000" transform="translate(534, 614)"></g><g id="g-root-tx_feedback_hs5gdtmji87b-fill" data-item-order="6000000000" transform="translate(558, 626)"><g id="tx_feedback_hs5gdtmji87b-fill" stroke="none" fill="#fc7a1e"><g><text style="font: 20px Arial, Helvetica, sans-serif; white-space: pre;" font-size="20px" font-family="Arial, Helvetica, sans-serif"><tspan x="13.23" y="33" dominant-baseline="ideographic">Feedback Analysis Efficiency</tspan></text></g></g></g><g id="g-root-ic_add_13zvg35mj9ssp-fill" data-item-order="6999997696" transform="translate(434, 350)"><g id="ic_add_13zvg35mj9ssp-fill" stroke="none" fill="#ffffff"><g><path d="M 10 34C 10 35.656853 11.343145 37 13 37L 30.5 37C 30.776142 37 31 37.223858 31 37.5L 31 55C 31 56.656857 32.343147 58 34 58C 35.656853 58 37 56.656857 37 55L 37 37.5C 37 37.223858 37.223858 37 37.5 37L 55 37C 56.656857 37 58 35.656853 58 34C 58 32.343147 56.656857 31 55 31L 37.5 31C 37.223858 31 37 30.776142 37 30.5L 37 13C 37 11.343145 35.656853 10 34 10C 32.343147 10 31 11.343145 31 13L 31 30.5C 31 30.776142 30.776142 31 30.5 31L 13 31C 11.343145 31 10 32.343147 10 34Z"></path></g></g></g><g id="g-root-ic_2_1haphddmjb7rg-fill" data-item-order="6999999100" transform="translate(522, 176)"><g id="ic_2_1haphddmjb7rg-fill" stroke="none" fill="#ffffff"><g><path d="M 26.57 11.2075C 26.569668 10.828573 26.341257 10.487105 25.991156 10.342141C 25.641052 10.197177 25.23811 10.277225 24.970001 10.545L 21.89625 13.6175C 21.530684 13.983522 21.530684 14.576478 21.89625 14.9425L 24.969999 18.0175C 25.23827 18.285437 25.641516 18.365404 25.991732 18.220119C 26.341948 18.074835 26.570171 17.732904 26.57 17.35375L 26.57 15.53125L 36.110001 15.53125C 36.7425 15.53125 37.25375 16.043751 37.25375 16.674999L 37.25375 31.501251C 37.25375 32.133751 36.741249 32.646252 36.110001 32.646252L 23.72625 32.646252C 23.472618 32.646259 23.224989 32.723427 23.016251 32.8675L 16.775 37.18L 16.775 33.896252C 16.775 33.205894 16.215357 32.646252 15.525 32.646252L 13.89125 32.646252C 13.587476 32.646584 13.296047 32.526058 13.081246 32.311256C 12.866445 32.096455 12.745918 31.805027 12.74625 31.501251L 12.74625 16.67625C 12.74625 16.043751 13.25875 15.53125 13.89125 15.53125L 16.57375 15.53125C 17.264105 15.53125 17.82375 14.971606 17.82375 14.28125C 17.82375 13.590894 17.264105 13.03125 16.57375 13.03125L 13.89125 13.03125C 11.878374 13.03056 10.24625 14.662124 10.24625 16.674999L 10.24625 31.501251C 10.24556 33.51461 11.877886 35.146938 13.89125 35.146248L 14.275 35.146252L 14.275 37.279999C 14.275 39.252502 16.49 40.415001 18.112499 39.2925L 24.116251 35.146252L 36.110001 35.146252C 38.122875 35.146248 39.75444 33.514126 39.75375 31.501247L 39.75375 16.67625C 39.75444 14.663374 38.122875 13.03125 36.109997 13.03125L 26.57 13.03125L 26.57 11.20625ZM 19.6625 24.53125C 20.945183 24.53125 21.985001 23.491432 21.985001 22.20875C 21.985001 20.926069 20.945183 19.88625 19.6625 19.88625C 18.379818 19.88625 17.34 20.926069 17.34 22.20875C 17.34 23.491432 18.379818 24.53125 19.6625 24.53125ZM 32.658752 22.20875C 32.658752 23.491432 31.618931 24.53125 30.33625 24.53125C 29.05357 24.53125 28.01375 23.491432 28.01375 22.20875C 28.01375 20.926069 29.05357 19.88625 30.33625 19.88625C 31.618931 19.88625 32.658752 20.926069 32.658752 22.20875ZM 24.102499 27.934999C 23.1175 26.5175 21.477501 25.57 19.661251 25.57C 17.84375 25.57 16.205 26.5175 15.22 27.934999C 14.74 28.625 15.3325 29.4475 16.172501 29.4475L 23.150002 29.4475C 23.98875 29.4475 24.581249 28.625 24.102499 27.934999ZM 30.334999 25.57C 32.151253 25.57 33.791252 26.5175 34.776249 27.934999C 35.255001 28.625 34.66375 29.4475 33.82375 29.4475L 26.846251 29.4475C 26.00625 29.4475 25.41375 28.625 25.893749 27.934999C 26.87875 26.5175 28.518749 25.57 30.334999 25.57Z"></path></g></g></g><g id="g-root-ic_stra_qva8ttmj00lp-fill" data-item-order="6999999100" transform="translate(284, 320)"><g id="ic_stra_qva8ttmj00lp-fill" stroke="none" fill="#ffffff"><g><path d="M 12.0625 36.837498C 12.0625 38.563389 13.461611 39.962502 15.1875 39.962502C 16.913391 39.962502 18.3125 38.563389 18.3125 36.837502C 18.3125 35.11161 16.913391 33.712502 15.1875 33.712502C 13.461611 33.712502 12.0625 35.11161 12.0625 36.837502M 22.6875 33.712498L 27.6875 33.712498C 27.6875 33.712498 28.3125 33.712498 28.3125 34.337498L 28.3125 39.337498C 28.3125 39.337498 28.3125 39.962498 27.6875 39.962498L 22.6875 39.962498C 22.6875 39.962498 22.0625 39.962498 22.0625 39.337498L 22.0625 34.337498C 22.0625 34.337498 22.0625 33.712498 22.6875 33.712498M 10 10M 37.862503 39.049999L 35.75 34.825001C 35.649944 34.607937 35.432766 34.468903 35.193752 34.468903C 34.954735 34.468903 34.737556 34.607937 34.637501 34.825001L 32.5 39.049999C 32.393105 39.240173 32.393105 39.472324 32.5 39.662498C 32.610001 39.847931 32.809395 39.961872 33.025002 39.962498L 37.262501 39.962498C 37.478104 39.961872 37.677498 39.847931 37.787498 39.662498C 37.918571 39.485771 37.94706 39.253136 37.862503 39.049999ZM 15.1875 32.5C 15.877856 32.5 16.4375 31.940355 16.4375 31.25L 16.4375 29.65C 16.4375 29.477411 16.577412 29.3375 16.75 29.3375L 23.625 29.3375C 23.79759 29.3375 23.9375 29.477411 23.9375 29.65L 23.9375 31.25C 23.9375 31.940355 24.497145 32.5 25.1875 32.5C 25.877855 32.5 26.4375 31.940355 26.4375 31.25L 26.4375 29.65C 26.4375 29.477411 26.577412 29.3375 26.75 29.3375L 33.625 29.3375C 33.797588 29.3375 33.9375 29.477411 33.9375 29.65L 33.9375 31.25C 33.9375 31.940355 34.497143 32.5 35.1875 32.5C 35.877853 32.5 36.4375 31.940355 36.4375 31.25L 36.4375 28.75C 36.4375 27.714466 35.598034 26.875 34.5625 26.875L 15.8125 26.875C 14.776966 26.875 13.9375 27.714466 13.9375 28.75L 13.9375 31.25C 13.9375 31.940355 14.497144 32.5 15.1875 32.5ZM 21.950001 19.4125C 22.024002 19.474058 22.065504 19.566288 22.0625 19.6625L 22.0625 20.35C 22.082638 20.853065 22.496531 21.250402 23 21.25L 27.375 21.25C 27.624666 21.253397 27.865103 21.155718 28.04166 20.97916C 28.218216 20.802603 28.315899 20.562168 28.3125 20.3125L 28.3125 19.6625C 28.314373 19.56459 28.360294 19.472744 28.437498 19.4125C 29.717684 18.451355 30.479553 16.950703 30.500002 15.35C 30.447365 12.431861 28.105198 10.07316 25.1875 10C 22.272532 10.079478 19.933971 12.434544 19.875 15.349999C 19.900311 16.952412 20.666601 18.452681 21.950001 19.4125ZM 25.0875 25.875C 25.605267 25.875 26.025002 25.455267 26.025002 24.9375L 26.025 24.725C 26.025 24.55241 26.164911 24.4125 26.3375 24.4125L 26.75 24.4125C 27.267767 24.4125 27.6875 23.992767 27.6875 23.475C 27.6875 22.957233 27.267767 22.5375 26.75 22.5375L 23.625 22.5375C 23.107233 22.5375 22.6875 22.957233 22.6875 23.475C 22.6875 23.992767 23.107233 24.4125 23.625 24.4125L 23.8375 24.4125C 24.010088 24.4125 24.15 24.55241 24.15 24.725L 24.15 25C 24.188812 25.490406 24.595583 25.87006 25.0875 25.875Z"></path></g></g></g><g id="g-root-ic_pie_1lpwiepmje1oi-fill" data-item-order="6999999100" transform="translate(602, 326)"><g id="ic_pie_1lpwiepmje1oi-fill" stroke="none" fill="#ffffff"><g><path d="M 24.0625 10.02875C 16.215 10.5125 10 17.030001 10 25C 10 28.86125 11.45875 32.381252 13.855 35.040001L 21.233751 27.439999C 21.260115 27.41293 21.288082 27.387466 21.317499 27.36375C 20.54434 26.158581 20.409647 24.651409 20.956856 23.328241C 21.504063 22.005074 22.663952 21.033289 24.062498 20.72625L 24.0625 10.02875ZM 22.63625 28.682501C 22.618095 28.704641 22.598907 28.725914 22.578751 28.74625L 15.195 36.35125C 17.916805 38.709396 21.398745 40.005135 25 40C 32.96875 40 39.487499 33.785 39.971249 25.9375L 29.375 25.9375C 29.3416 25.937622 29.30822 25.935953 29.275 25.932501C 28.969423 27.332338 27.997953 28.493933 26.674225 29.042267C 25.350496 29.590601 23.842188 29.456217 22.63625 28.682499ZM 25.9375 10.02875C 33.475002 10.49375 39.506248 16.525 39.971249 24.0625L 29.375 24.0625C 29.3416 24.062378 29.30822 24.064047 29.275 24.067499C 28.909336 22.398165 27.606424 21.093786 25.9375 20.72625L 25.9375 10.02875Z"></path></g></g></g><g id="g-root-ic_robo_dkg4dtmjjoju-fill" data-item-order="6999999100" transform="translate(364, 134)"><g id="ic_robo_dkg4dtmjjoju-fill" stroke="none" fill="#ffffff"><g><path d="M 10.18375 12.685C 10.18375 11.304288 11.303039 10.185 12.68375 10.185L 18.216249 10.185C 18.906607 10.185 19.466249 10.744644 19.466249 11.435C 19.466249 12.125356 18.906607 12.685 18.216249 12.685L 12.68375 12.685L 12.68375 18.217501C 12.68375 18.907856 12.124106 19.467501 11.43375 19.467501C 10.743394 19.467501 10.18375 18.907856 10.18375 18.217501L 10.18375 12.685ZM 30.53125 11.435C 30.53125 10.744644 31.090893 10.185 31.78125 10.185L 37.313751 10.185C 38.694462 10.185 39.813751 11.304288 39.813751 12.685L 39.813751 18.217501C 39.813751 18.907856 39.254105 19.467501 38.563751 19.467501C 37.873394 19.467501 37.313751 18.907856 37.313751 18.217501L 37.313751 12.685L 31.78125 12.685C 31.090893 12.685 30.53125 12.125356 30.53125 11.435ZM 11.43375 30.532501C 12.124106 30.532501 12.68375 31.092144 12.68375 31.782501L 12.68375 37.314999L 18.216249 37.314999C 18.906607 37.314999 19.466249 37.874645 19.466249 38.564999C 19.466249 39.255356 18.906607 39.814999 18.216249 39.814999L 12.68375 39.814999C 11.303039 39.814999 10.18375 38.695713 10.18375 37.314999L 10.18375 31.782501C 10.18375 31.092144 10.743394 30.532501 11.43375 30.532501ZM 38.563751 30.532501C 39.254105 30.532501 39.813751 31.092144 39.813751 31.782501L 39.813751 37.314999C 39.813751 38.695713 38.694462 39.814999 37.313751 39.814999L 31.78125 39.814999C 31.090893 39.814999 30.53125 39.255356 30.53125 38.564999C 30.53125 37.874645 31.090893 37.314999 31.78125 37.314999L 37.313751 37.314999L 37.313751 31.782501C 37.313751 31.092144 37.873394 30.532501 38.563751 30.532501ZM 17 23.622499C 17 21.89661 18.399111 20.497499 20.125 20.497499L 23.748749 20.497499L 23.748749 17.05625C 23.748749 16.365894 24.308393 15.80625 24.998749 15.80625C 25.689106 15.80625 26.248749 16.365894 26.248749 17.05625L 26.248749 20.497499L 29.87125 20.497499C 31.597139 20.497499 32.99625 21.89661 32.99625 23.622499L 32.99625 29.817501C 32.99625 31.54339 31.597139 32.942501 29.87125 32.942501L 20.125 32.942501C 18.399111 32.942501 17 31.54339 17 29.817501L 17 23.622499ZM 22.016251 29.0525C 21.498484 29.052502 21.078751 28.632767 21.078751 28.115002L 21.078751 25.331251C 21.078751 24.813484 21.498484 24.393751 22.016251 24.393751C 22.534018 24.393751 22.953751 24.813484 22.953751 25.331251L 22.953751 28.115C 22.953751 28.632767 22.534018 29.052502 22.016251 29.052502ZM 27.043751 28.115C 27.043751 28.632767 27.463484 29.052502 27.981251 29.052502C 28.499018 29.052502 28.918751 28.632767 28.918751 28.115002L 28.918751 25.331251C 28.918751 24.813484 28.499018 24.393751 27.981251 24.393751C 27.463484 24.393751 27.043751 24.813484 27.043751 25.331251L 27.043751 28.115Z"></path></g></g></g><g id="g-root-ic_tech_1um62whmj2sxu-fill" data-item-order="6999999100" transform="translate(364, 578)"><g id="ic_tech_1um62whmj2sxu-fill" stroke="none" fill="#ffffff"><g><path d="M 33.75 33.75C 33.59985 33.720604 33.490532 33.590466 33.487499 33.437496L 33.487503 30.625C 33.487503 29.934643 32.927856 29.375 32.237503 29.375C 31.547144 29.375 30.987501 29.934643 30.987501 30.625L 30.987501 33.4375C 30.987501 33.610088 30.847589 33.75 30.675001 33.75L 20 33.75C 19.827412 33.75 19.6875 33.610088 19.6875 33.4375L 19.6875 30.625C 19.6875 29.934643 19.127855 29.375 18.4375 29.375C 17.747145 29.375 17.1875 29.934643 17.1875 30.625L 17.1875 33.462502C 17.184465 33.615467 17.07515 33.745605 16.924999 33.774998C 16.002535 33.905426 15.315747 34.693367 15.3125 35.625L 15.3125 38.125C 15.3125 39.160534 16.151966 40 17.1875 40L 33.4375 40C 34.473034 40 35.3125 39.160534 35.3125 38.125L 35.3125 35.625C 35.325424 34.700161 34.662006 33.904068 33.75 33.75ZM 25.3125 36.875C 25.3125 37.565353 24.752857 38.125 24.0625 38.125C 23.372143 38.125 22.8125 37.565353 22.8125 36.875C 22.8125 36.184647 23.372143 35.625 24.0625 35.625C 24.752857 35.625 25.3125 36.184647 25.3125 36.875ZM 19.6875 35.625C 20.377857 35.625 20.9375 36.184647 20.9375 36.875C 20.9375 37.565353 20.377857 38.125 19.6875 38.125C 18.997145 38.125 18.4375 37.565353 18.4375 36.875C 18.4375 36.184647 18.997145 35.625 19.6875 35.625ZM 19.762501 26.4C 19.945915 26.677525 20.232388 26.870495 20.558493 26.936184C 20.884602 27.001875 21.223442 26.93487 21.5 26.75C 23.816738 25.237793 26.80826 25.237793 29.125 26.75C 29.401558 26.93487 29.740398 27.001875 30.066507 26.936184C 30.392612 26.870495 30.679085 26.677525 30.862501 26.4C 31.239059 25.826397 31.082844 25.056479 30.512501 24.674999C 27.352694 22.612206 23.272306 22.612206 20.112499 24.674999C 19.542156 25.056479 19.385941 25.826397 19.762501 26.4ZM 21.5 28.424999C 20.923367 28.808075 20.766542 29.586119 21.149754 30.162661C 21.532967 30.739204 22.311047 30.895845 22.887499 30.512501C 24.36117 29.55088 26.26383 29.55088 27.737501 30.512501C 27.945822 30.647142 28.189491 30.716763 28.4375 30.7125C 28.853283 30.713127 29.242161 30.506973 29.475 30.162498C 29.659868 29.885942 29.726875 29.5471 29.661184 29.220993C 29.595493 28.894886 29.402525 28.608414 29.125 28.424999C 26.80826 26.912792 23.816738 26.912792 21.5 28.424999ZM 39.6875 12.5C 39.6875 11.119288 38.568214 10 37.1875 10L 33.4375 10C 32.056786 10 30.9375 11.119288 30.9375 12.5L 30.9375 20.625C 30.9375 22.005713 32.056786 23.125 33.4375 23.125L 37.1875 23.125C 38.568214 23.125 39.6875 22.005713 39.6875 20.625L 39.6875 12.5ZM 36.875 12.5C 37.047588 12.5 37.1875 12.639911 37.1875 12.8125L 37.1875 20.3125C 37.1875 20.485088 37.047588 20.625 36.875 20.625L 33.75 20.625C 33.577412 20.625 33.4375 20.485088 33.4375 20.3125L 33.4375 12.8125C 33.4375 12.639911 33.577412 12.5 33.75 12.5ZM 10.3125 12.5L 10.3125 16.875C 10.3125 18.255713 11.431788 19.375 12.8125 19.375L 15 19.375C 15.172588 19.375 15.3125 19.514912 15.3125 19.6875L 15.3125 20.3125C 15.3125 20.485088 15.172588 20.625 15 20.625L 13.75 20.625C 13.059644 20.625 12.5 21.184643 12.5 21.875C 12.5 22.565357 13.059644 23.125 13.75 23.125L 19.375 23.125C 20.065357 23.125 20.625 22.565357 20.625 21.875C 20.625 21.184643 20.065357 20.625 19.375 20.625L 18.125 20.625C 17.952412 20.625 17.8125 20.485088 17.8125 20.3125L 17.8125 19.6875C 17.8125 19.514912 17.952412 19.375 18.125 19.375L 20.3125 19.375C 21.693213 19.375 22.8125 18.255713 22.8125 16.875L 22.8125 12.5C 22.8125 11.119288 21.693213 10 20.3125 10L 12.8125 10C 11.431788 10 10.3125 11.119288 10.3125 12.5ZM 20.3125 16.5625C 20.316128 16.646444 20.284388 16.728062 20.224998 16.7875C 20.162199 16.841516 20.082794 16.872396 20 16.875L 13.125 16.875C 12.952411 16.875 12.8125 16.735088 12.8125 16.5625L 12.8125 12.8125C 12.8125 12.639911 12.952411 12.5 13.125 12.5L 20 12.5C 20.172588 12.5 20.3125 12.639911 20.3125 12.8125Z"></path></g></g></g><g id="g-root-ic_calc_94mm9dmjgver-fill" data-item-order="6999999100" transform="translate(528, 572)"><g id="ic_calc_94mm9dmjgver-fill" stroke="none" fill="#ffffff"><g><path d="M 39.549999 24.375C 39.377701 23.428972 38.643631 22.684982 37.700001 22.5L 26.549999 22.5C 25.608812 22.67691 24.870745 23.410027 24.6875 24.349998L 24.6875 38.012501C 24.870745 38.952473 25.608812 39.685589 26.549999 39.862499L 37.700001 39.862499C 38.636345 39.681011 39.368511 38.948845 39.549999 38.012501ZM 27.787498 26.25C 27.775845 26.082024 27.838404 25.917381 27.958662 25.799526C 28.07892 25.681675 28.244795 25.622456 28.412498 25.637501L 35.837502 25.637501C 36.005207 25.622456 36.171078 25.681675 36.291336 25.799526C 36.411598 25.917381 36.474155 26.082024 36.462502 26.25L 36.462502 28.75C 36.473675 28.918938 36.411427 29.084488 36.291706 29.204206C 36.171986 29.323925 36.006439 29.386175 35.837502 29.375L 28.412498 29.375C 28.242357 29.382437 28.07707 29.317225 27.957846 29.195614C 27.838621 29.074005 27.776691 28.907459 27.787498 28.737499ZM 28.75 36.787498C 28.235046 36.780769 27.819231 36.364952 27.8125 35.849998C 27.81934 35.33712 28.237076 34.924957 28.75 34.924999C 29.260864 34.924999 29.675001 35.339138 29.675001 35.849998C 29.675047 36.362923 29.262878 36.780663 28.75 36.787498ZM 28.75 33.674999C 28.235046 33.668266 27.819231 33.252453 27.8125 32.737499C 27.81934 32.224621 28.237076 31.812456 28.75 31.8125C 29.260864 31.8125 29.675001 32.226635 29.675001 32.737499C 29.675047 33.250423 29.262878 33.668163 28.75 33.674999ZM 32.25 36.787498C 31.737122 36.780663 31.324955 36.362923 31.325001 35.849998C 31.325001 35.339138 31.739138 34.924999 32.25 34.924999C 32.762924 34.924957 33.18066 35.33712 33.1875 35.849998C 33.180641 36.374687 32.749687 36.794449 32.224998 36.787498ZM 32.25 33.674999C 31.737122 33.668163 31.324955 33.250423 31.325001 32.737499C 31.325001 32.226635 31.739138 31.8125 32.25 31.8125C 32.762924 31.812456 33.18066 32.224621 33.1875 32.737499C 33.180641 33.262188 32.749687 33.68195 32.224998 33.674999ZM 35.862499 36.787498C 35.349621 36.780663 34.937454 36.362923 34.9375 35.849998C 34.9375 35.339138 35.351635 34.924999 35.862499 34.924999C 36.375423 34.924957 36.793163 35.33712 36.799999 35.849998C 36.79314 36.374687 36.362186 36.794449 35.837502 36.787498ZM 35.862499 33.674999C 35.349621 33.668163 34.937454 33.250423 34.9375 32.737499C 34.9375 32.226635 35.351635 31.8125 35.862499 31.8125C 36.375423 31.812456 36.793163 32.224621 36.799999 32.737499C 36.79314 33.262188 36.362186 33.68195 35.837502 33.674999ZM 27.700001 16.525C 27.640562 16.584389 27.558943 16.616129 27.474998 16.612499C 27.394791 16.615747 27.317167 16.583784 27.262499 16.525L 26.137501 15.400001C 25.163881 14.438946 23.598618 14.438946 22.625 15.400001L 10.8125 27.225C 10.47089 27.583073 10.372696 28.108971 10.562077 28.566189C 10.751457 29.023407 11.19275 29.325848 11.6875 29.3375C 12.015425 29.336119 12.329674 29.205931 12.5625 28.975L 24.1625 17.375C 24.217167 17.316216 24.29479 17.284254 24.375 17.2875C 24.458944 17.283871 24.540562 17.315611 24.599998 17.375L 25.725 18.5C 26.697109 19.452858 28.252892 19.452858 29.225 18.5L 33.275002 14.4625C 33.328369 14.400436 33.405663 14.364063 33.487503 14.3625C 33.573025 14.363637 33.654346 14.399779 33.712498 14.4625L 34.787498 15.525C 34.900352 15.646423 35.059246 15.71452 35.224998 15.712501C 35.303303 15.729028 35.384193 15.729028 35.462502 15.712501C 35.688835 15.610245 35.835178 15.385851 35.837502 15.1375L 35.837502 10.75C 35.837502 10.411726 35.563274 10.1375 35.224998 10.1375L 30.887499 10.1375C 30.639151 10.139822 30.414755 10.286166 30.3125 10.5125C 30.215477 10.744398 30.269995 11.012033 30.450001 11.1875L 31.512499 12.2625C 31.57522 12.320654 31.611364 12.401976 31.612501 12.4875C 31.610937 12.569339 31.574564 12.646632 31.512499 12.7Z"></path></g></g></g><g id="g-root-tx_challeng_1q6chm9mjb6yr-fill" data-item-order="7000000000" transform="translate(558, 179)"><g id="tx_challeng_1q6chm9mjb6yr-fill" stroke="none" fill="#ffffff"><g><text style="font: 20px Arial, Helvetica, sans-serif; white-space: pre;" font-size="20px" font-family="Arial, Helvetica, sans-serif"><tspan x="13.96" y="33" dominant-baseline="ideographic">Challenges</tspan></text></g></g></g><g id="g-root-tx_approach_zqx92pmizzt0-fill" data-item-order="7000000000" transform="translate(182, 323)"><g id="tx_approach_zqx92pmizzt0-fill" stroke="none" fill="#ffffff"><g><text style="font: 20px Arial, Helvetica, sans-serif; white-space: pre;" font-size="20px" font-family="Arial, Helvetica, sans-serif"><tspan x="15.19" y="33" dominant-baseline="ideographic">Approach</tspan></text></g></g></g><g id="g-root-tx_services_8ysxmje0ap-fill" data-item-order="7000000000" transform="translate(638, 329)"><g id="tx_services_8ysxmje0ap-fill" stroke="none" fill="#ffffff"><g><text style="font: 20px Arial, Helvetica, sans-serif; white-space: pre;" font-size="20px" font-family="Arial, Helvetica, sans-serif"><tspan x="13.65" y="33" dominant-baseline="ideographic">Services</tspan></text></g></g></g><g id="g-root-tx_aidriven_1haphddmj9udk-fill" data-item-order="7000000000" transform="translate(398, 404)"><g id="tx_aidriven_1haphddmj9udk-fill" stroke="none" fill="#ffffff"><g><text style="font: 20px Arial, Helvetica, sans-serif; white-space: pre;" font-size="20px" font-family="Arial, Helvetica, sans-serif"><tspan x="26.55" y="33" dominant-baseline="ideographic">AI-Driven </tspan><tspan x="13.76" y="57" dominant-baseline="ideographic">Sentiment &amp; </tspan><tspan x="24.32" y="81" dominant-baseline="ideographic">Feedback </tspan><tspan x="30.99" y="105" dominant-baseline="ideographic">Analysis</tspan></text></g></g></g><g id="g-root-tx_solution_mg34mpmjjnr5-fill" data-item-order="7000000000" transform="translate(262, 137)"><g id="tx_solution_mg34mpmjjnr5-fill" stroke="none" fill="#ffffff"><g><text style="font: 20px Arial, Helvetica, sans-serif; white-space: pre;" font-size="20px" font-family="Arial, Helvetica, sans-serif"><tspan x="16.86" y="33" dominant-baseline="ideographic">Solutions</tspan></text></g></g></g><g id="g-root-tx_technolo_vj1tmj2scp-fill" data-item-order="7000000000" transform="translate(226, 581)"><g id="tx_technolo_vj1tmj2scp-fill" stroke="none" fill="#ffffff"><g><text style="font: 20px Arial, Helvetica, sans-serif; white-space: pre;" font-size="20px" font-family="Arial, Helvetica, sans-serif"><tspan x="17.63" y="33" dominant-baseline="ideographic">Technologies</tspan></text></g></g></g><g id="g-root-tx_statisti_dkg4dtmjgumi-fill" data-item-order="7000000000" transform="translate(564, 575)"><g id="tx_statisti_dkg4dtmjgumi-fill" stroke="none" fill="#ffffff"><g><text style="font: 20px Arial, Helvetica, sans-serif; white-space: pre;" font-size="20px" font-family="Arial, Helvetica, sans-serif"><tspan x="11.98" y="33" dominant-baseline="ideographic">Statistics</tspan></text></g></g></g><g id="g-root-tf_2qyb5mj2tq9-stroke" data-item-order="5999183520"></g><g id="g-root-ro_13zvg35mj9ssq-stroke" data-item-order="5999966736" transform="translate(374, 326)"></g><g id="g-root-ro_1lqj2nlmj2tqj-stroke" data-item-order="5999989632" transform="translate(214, 566)"></g><g id="g-root-ro_1cuvz8xmjb8jp-stroke" data-item-order="5999990928" transform="translate(510, 164)"></g><g id="g-root-ro_9m33lmjgt1o-stroke" data-item-order="5999991576" transform="translate(510, 560)"></g><g id="g-root-ro_9593chmjjm6b-stroke" data-item-order="5999991576" transform="translate(250, 122)"></g><g id="g-root-ro_qva8ttmj00lq-stroke" data-item-order="5999991576" transform="translate(170, 308)"></g><g id="g-root-ro_1lpwiepmje1oj-stroke" data-item-order="5999992224" transform="translate(590, 314)"></g><g id="g-root-cu_18fp1ddmj2sy3-stroke" data-item-order="6000000000" transform="translate(364, 176)"><g id="cu_18fp1ddmj2sy3-stroke" fill="none" stroke-linecap="round" stroke-linejoin="round" stroke-miterlimit="4" stroke="#000000" stroke-width="2" stroke-dasharray="5.0, 7.0"><g><path d="M 28 10L 28 22L 28 34L 19 34L 10 34"></path></g></g></g><g id="g-root-cu_18fp1ddmj2sy6-stroke" data-item-order="6000000000" transform="translate(364, 176)"><g id="cu_18fp1ddmj2sy6-stroke" fill="none" stroke-linecap="round" stroke-linejoin="round" stroke-miterlimit="4" stroke="#000000" stroke-width="2" stroke-dasharray="5.0, 7.0"><g><path d="M 28 10L 28 40L 28 70L 19 70L 10 70"></path></g></g></g><g id="g-root-cu_13zvj8xmj2tqg-stroke" data-item-order="6000000000" transform="translate(364, 176)"><g id="cu_13zvj8xmj2tqg-stroke" fill="none" stroke-linecap="round" stroke-linejoin="round" stroke-miterlimit="4" stroke="#000000" stroke-width="2" stroke-dasharray="5.0, 7.0"><g><path d="M 28 10L 28 22L 28 94C 28.000002 100.627415 22.627419 105.999998 16.000002 105.999998L 15.9 106L 10 106"></path></g></g></g><g id="g-root-cu_1lqj2nlmj2tqk-stroke" data-item-order="6000000000" transform="translate(486, 191)"><g id="cu_1lqj2nlmj2tqk-stroke" fill="none" stroke-linecap="round" stroke-linejoin="round" stroke-miterlimit="4" stroke="#000000" stroke-width="2" stroke-dasharray="5.0, 7.0"><g><path d="M 10 145L 10 128.1L 10 30.9C 10 19.357248 19.357248 10 30.899998 10L 31 10L 34 10"></path></g></g></g><g id="g-root-tx_transfer_m7yyi9mji7f0-stroke" data-item-order="6000000000" transform="translate(190, 668)"></g><g id="g-root-tx_machinel_1qf34ttmjguf4-stroke" data-item-order="6000000000" transform="translate(190, 224)"></g><g id="g-root-cu_1cvijhtmj2s5q-stroke" data-item-order="6000000000" transform="translate(534, 218)"><g id="cu_1cvijhtmj2s5q-stroke" fill="none" stroke-linecap="round" stroke-linejoin="round" stroke-miterlimit="4" stroke="#000000" stroke-width="2" stroke-dasharray="5.0, 7.0"><g><path d="M 10 10L 10 22L 10 34L 19 34L 28 34"></path></g></g></g><g id="g-root-cu_18fp1ddmj2sy1-stroke" data-item-order="6000000000" transform="translate(534, 218)"><g id="cu_18fp1ddmj2sy1-stroke" fill="none" stroke-linecap="round" stroke-linejoin="round" stroke-miterlimit="4" stroke="#000000" stroke-width="2" stroke-dasharray="5.0, 7.0"><g><path d="M 10 10L 10 17.5L 10 58C 10.000002 64.627417 15.372585 70 22.000002 69.999999L 22.1 70L 34.3 70"></path></g></g></g><g id="g-root-tx_unstruct_1uuwmy9mjgtmt-stroke" data-item-order="6000000000" transform="translate(558, 230)"></g><g id="g-root-tx_realtime_1hjg4kxmjgv7t-stroke" data-item-order="6000000000" transform="translate(106, 260)"></g><g id="g-root-tx_manualan_1uuwmy9mjgtmu-stroke" data-item-order="6000000000" transform="translate(564, 266)"></g><g id="g-root-tx_nlp_1lz9mpdmjgufj-stroke" data-item-order="6000000000" transform="translate(310, 188)"></g><g id="g-root-tx_issuedet_dcby9dmji8zk-stroke" data-item-order="6000000000" transform="translate(552, 662)"></g><g id="g-root-cu_1hbc1m9mj2rd9-stroke" data-item-order="6000000000" transform="translate(326, 335)"><g id="cu_1hbc1m9mj2rd9-stroke" fill="none" stroke-linecap="round" stroke-linejoin="round" stroke-miterlimit="4" stroke="#000000" stroke-width="2" stroke-dasharray="5.0, 7.0"><g><path d="M 58 67L 55 67L 54.9 67C 43.357246 66.999995 33.999999 57.642747 33.999998 46.099997L 34 46L 34 30.9C 33.999998 19.357248 24.64275 10 13.1 10L 13 10L 10 10"></path></g></g></g><g id="g-root-cu_1hbc1m9mj2rd3-stroke" data-item-order="6000000000" transform="translate(406, 149)"><g id="cu_1hbc1m9mj2rd3-stroke" fill="none" stroke-linecap="round" stroke-linejoin="round" stroke-miterlimit="4" stroke="#000000" stroke-width="2" stroke-dasharray="5.0, 7.0"><g><path d="M 34 187L 34 164.9L 34 30.9C 33.999998 19.357248 24.64275 10 13.1 10L 13 10L 10 10"></path></g></g></g><g id="g-root-tx_semantic_m7yyi9mji7f1-stroke" data-item-order="6000000000" transform="translate(190, 704)"></g><g id="g-root-tx_improvem_dcby9dmji8zl-stroke" data-item-order="6000000000" transform="translate(558, 698)"></g><g id="g-root-cu_1hbc1m9mj2rd6-stroke" data-item-order="6000000000" transform="translate(542, 341)"><g id="cu_1hbc1m9mj2rd6-stroke" fill="none" stroke-linecap="round" stroke-linejoin="round" stroke-miterlimit="4" stroke="#000000" stroke-width="2" stroke-dasharray="5.0, 7.0"><g><path d="M 10 61L 13 61L 13.1 61C 24.642753 60.999998 34.000001 51.642749 34.000001 40.099998L 34 40L 34 30.9C 33.999999 19.357249 43.357248 10.000001 54.899999 10.000002L 55 10L 58 10"></path></g></g></g><g id="g-root-tx_datadisc_13ymhwxmji87i-stroke" data-item-order="6000000000" transform="translate(134, 374)"></g><g id="g-root-cu_v4v035mj2s5k-stroke" data-item-order="6000000000" transform="translate(277.625, 362)"><g id="cu_v4v035mj2s5k-stroke" fill="none" stroke-linecap="round" stroke-linejoin="round" stroke-miterlimit="4" stroke="#000000" stroke-width="2" stroke-dasharray="5.0, 7.0"><g><path d="M 34.4 10L 34.4 58L 34.4 106L 22.2 106L 10 106"></path></g></g></g><g id="g-root-cu_zkoi7lmj2rd7-stroke" data-item-order="6000000000" transform="translate(284, 362)"><g id="cu_zkoi7lmj2rd7-stroke" fill="none" stroke-linecap="round" stroke-linejoin="round" stroke-miterlimit="4" stroke="#000000" stroke-width="2" stroke-dasharray="5.0, 7.0"><g><path d="M 28 10L 28 22L 28 34L 19 34L 10 34"></path></g></g></g><g id="g-root-cu_v4v035mj2s5i-stroke" data-item-order="6000000000" transform="translate(284, 362)"><g id="cu_v4v035mj2s5i-stroke" fill="none" stroke-linecap="round" stroke-linejoin="round" stroke-miterlimit="4" stroke="#000000" stroke-width="2" stroke-dasharray="5.0, 7.0"><g><path d="M 28 10L 28 40L 28 70L 19 70L 10 70"></path></g></g></g><g id="g-root-cu_v4v035mj2s5m-stroke" data-item-order="6000000000" transform="translate(284, 362)"><g id="cu_v4v035mj2s5m-stroke" fill="none" stroke-linecap="round" stroke-linejoin="round" stroke-miterlimit="4" stroke="#000000" stroke-width="2" stroke-dasharray="5.0, 7.0"><g><path d="M 28 10L 28 76L 28 142L 19 142L 10 142"></path></g></g></g><g id="g-root-cu_qp1hypmj2sxw-stroke" data-item-order="6000000000" transform="translate(284, 362)"><g id="cu_qp1hypmj2sxw-stroke" fill="none" stroke-linecap="round" stroke-linejoin="round" stroke-miterlimit="4" stroke="#000000" stroke-width="2" stroke-dasharray="5.0, 7.0"><g><path d="M 28 10L 28 31L 28 166C 28.000011 172.627427 22.627428 178.000011 16.00001 178.000011L 15.9 178L 10 178"></path></g></g></g><g id="g-root-cu_13zvj8xmj2tqi-stroke" data-item-order="6000000000" transform="translate(614, 368)"><g id="cu_13zvj8xmj2tqi-stroke" fill="none" stroke-linecap="round" stroke-linejoin="round" stroke-miterlimit="4" stroke="#000000" stroke-width="2" stroke-dasharray="5.0, 7.0"><g><path d="M 10 10L 10 22L 10 34L 19 34L 28 34"></path></g></g></g><g id="g-root-cu_13zvj8xmj2tql-stroke" data-item-order="6000000000" transform="translate(614, 368)"><g id="cu_13zvj8xmj2tql-stroke" fill="none" stroke-linecap="round" stroke-linejoin="round" stroke-miterlimit="4" stroke="#000000" stroke-width="2" stroke-dasharray="5.0, 7.0"><g><path d="M 10 10L 10 40L 10 70L 19 70L 28 70"></path></g></g></g><g id="g-root-cu_zkoi7lmj2rd3-stroke" data-item-order="6000000000" transform="translate(614, 368)"><g id="cu_zkoi7lmj2rd3-stroke" fill="none" stroke-linecap="round" stroke-linejoin="round" stroke-miterlimit="4" stroke="#000000" stroke-width="2" stroke-dasharray="5.0, 7.0"><g><path d="M 10 10L 10 58L 10 106L 19 106L 28 106"></path></g></g></g><g id="g-root-cu_zkoi7lmj2rd5-stroke" data-item-order="6000000000" transform="translate(614, 368)"><g id="cu_zkoi7lmj2rd5-stroke" fill="none" stroke-linecap="round" stroke-linejoin="round" stroke-miterlimit="4" stroke="#000000" stroke-width="2" stroke-dasharray="5.0, 7.0"><g><path d="M 10 10L 10 26.5L 10 130C 10.000005 136.627425 15.372589 142.000008 22.000006 142.000007L 22.1 142L 28 142"></path></g></g></g><g id="g-root-tx_multicha_1hjg4kxmjgv7u-stroke" data-item-order="6000000000" transform="translate(638, 380)"></g><g id="g-root-tx_marketpo_4goy0hmji9sa-stroke" data-item-order="6000000000" transform="translate(558, 758)"></g><g id="g-root-tx_emotiond_1cu9i5tmji7er-stroke" data-item-order="6000000000" transform="translate(638, 416)"></g><g id="g-root-tx_platform_ziszshmji8zs-stroke" data-item-order="6000000000" transform="translate(92, 446)"></g><g id="g-root-tx_featurel_1cu9i5tmji7es-stroke" data-item-order="6000000000" transform="translate(638, 452)"></g><g id="g-root-tx_dashboar_v2zho1mji9s1-stroke" data-item-order="6000000000" transform="translate(110, 482)"></g><g id="g-root-tx_trendrec_13ymhwxmji87h-stroke" data-item-order="6000000000" transform="translate(638, 488)"></g><g id="g-root-tx_continuo_v2zho1mji9s2-stroke" data-item-order="6000000000" transform="translate(50, 518)"></g><g id="g-root-cu_1cvijhtmj2s5k-stroke" data-item-order="6000000000" transform="translate(406, 524)"><g id="cu_1cvijhtmj2s5k-stroke" fill="none" stroke-linecap="round" stroke-linejoin="round" stroke-miterlimit="4" stroke="#000000" stroke-width="2" stroke-dasharray="5.0, 7.0"><g><path d="M 34 10L 34 18.6L 34 58.1C 34.000002 69.642751 24.642753 79 13.100002 79L 13 79L 10 79"></path></g></g></g><g id="g-root-cu_1cvijhtmj2s5n-stroke" data-item-order="6000000000" transform="translate(486, 524)"><g id="cu_1cvijhtmj2s5n-stroke" fill="none" stroke-linecap="round" stroke-linejoin="round" stroke-miterlimit="4" stroke="#000000" stroke-width="2" stroke-dasharray="5.0, 7.0"><g><path d="M 10 10L 10 17.9L 10 52.1C 9.999998 63.64275 19.357246 72.999999 30.899997 72.999999L 31 73L 34 73"></path></g></g></g><g id="g-root-tx_interact_hs5gdtmji87a-stroke" data-item-order="6000000000" transform="translate(142, 740)"></g><g id="g-root-tx_aidriven_de7gohmj2s5c-stroke" data-item-order="6000000000" transform="translate(224, 38)"></g><g id="g-root-tx_custommo_ziszshmji8zr-stroke" data-item-order="6000000000" transform="translate(14, 410)"></g><g id="g-root-tx_neuralne_m7yyi9mji7ez-stroke" data-item-order="6000000000" transform="translate(202, 632)"></g><g id="g-root-cu_qp1hypmj2sxy-stroke" data-item-order="6000000000" transform="translate(364, 620)"><g id="cu_qp1hypmj2sxy-stroke" fill="none" stroke-linecap="round" stroke-linejoin="round" stroke-miterlimit="4" stroke="#000000" stroke-width="2" stroke-dasharray="5.0, 7.0"><g><path d="M 28 10L 28 22L 28 34L 19 34L 10 34"></path></g></g></g><g id="g-root-cu_m97zu9mj2tq9-stroke" data-item-order="6000000000" transform="translate(364, 620)"><g id="cu_m97zu9mj2tq9-stroke" fill="none" stroke-linecap="round" stroke-linejoin="round" stroke-miterlimit="4" stroke="#000000" stroke-width="2" stroke-dasharray="5.0, 7.0"><g><path d="M 28 10L 28 40L 28 70L 19 70L 10 70"></path></g></g></g><g id="g-root-cu_m97zu9mj2tqb-stroke" data-item-order="6000000000" transform="translate(364, 620)"><g id="cu_m97zu9mj2tqb-stroke" fill="none" stroke-linecap="round" stroke-linejoin="round" stroke-miterlimit="4" stroke="#000000" stroke-width="2" stroke-dasharray="5.0, 7.0"><g><path d="M 28 10L 28 58L 28 106L 19 106L 10 106"></path></g></g></g><g id="g-root-cu_m97zu9mj2tqd-stroke" data-item-order="6000000000" transform="translate(364, 620)"><g id="cu_m97zu9mj2tqd-stroke" fill="none" stroke-linecap="round" stroke-linejoin="round" stroke-miterlimit="4" stroke="#000000" stroke-width="2" stroke-dasharray="5.0, 7.0"><g><path d="M 28 10L 28 26.5L 28 130C 28.000005 136.627421 22.627422 142.000005 16.000005 142.000005L 15.9 142L 10 142"></path></g></g></g><g id="g-root-cu_hu0ysxmj2rcy-stroke" data-item-order="6000000000" transform="translate(533.6470336914062, 614)"><g id="cu_hu0ysxmj2rcy-stroke" fill="none" stroke-linecap="round" stroke-linejoin="round" stroke-miterlimit="4" stroke="#000000" stroke-width="2" stroke-dasharray="5.0, 7.0"><g><path d="M 10.4 10L 10.4 25L 10.4 40L 10.2 40L 10 40L 10 55L 10 70L 16 70L 22 70"></path></g></g></g><g id="g-root-cu_de7gohmj2rdb-stroke" data-item-order="6000000000" transform="translate(534, 614)"><g id="cu_de7gohmj2rdb-stroke" fill="none" stroke-linecap="round" stroke-linejoin="round" stroke-miterlimit="4" stroke="#000000" stroke-width="2" stroke-dasharray="5.0, 7.0"><g><path d="M 10 10L 10 22L 10 34L 19 34L 28 34"></path></g></g></g><g id="g-root-cu_hu0ysxmj2rd0-stroke" data-item-order="6000000000" transform="translate(534, 614)"><g id="cu_hu0ysxmj2rd0-stroke" fill="none" stroke-linecap="round" stroke-linejoin="round" stroke-miterlimit="4" stroke="#000000" stroke-width="2" stroke-dasharray="5.0, 7.0"><g><path d="M 10 10L 10 64L 10 118L 19 118L 28 118"></path></g></g></g><g id="g-root-cu_8ydyk1mj2s5q-stroke" data-item-order="6000000000" transform="translate(534, 614)"><g id="cu_8ydyk1mj2s5q-stroke" fill="none" stroke-linecap="round" stroke-linejoin="round" stroke-miterlimit="4" stroke="#000000" stroke-width="2" stroke-dasharray="5.0, 7.0"><g><path d="M 10 10L 10 29.5L 10 154C 10 160.627425 15.372584 166.000008 22.000001 166.000008L 22.1 166L 28 166"></path></g></g></g><g id="g-root-tx_feedback_hs5gdtmji87b-stroke" data-item-order="6000000000" transform="translate(558, 626)"></g><g id="g-root-ic_add_13zvg35mj9ssp-stroke" data-item-order="6999997696" transform="translate(434, 350)"></g><g id="g-root-ic_2_1haphddmjb7rg-stroke" data-item-order="6999999100" transform="translate(522, 176)"></g><g id="g-root-ic_stra_qva8ttmj00lp-stroke" data-item-order="6999999100" transform="translate(284, 320)"></g><g id="g-root-ic_pie_1lpwiepmje1oi-stroke" data-item-order="6999999100" transform="translate(602, 326)"></g><g id="g-root-ic_robo_dkg4dtmjjoju-stroke" data-item-order="6999999100" transform="translate(364, 134)"></g><g id="g-root-ic_tech_1um62whmj2sxu-stroke" data-item-order="6999999100" transform="translate(364, 578)"></g><g id="g-root-ic_calc_94mm9dmjgver-stroke" data-item-order="6999999100" transform="translate(528, 572)"></g><g id="g-root-tx_challeng_1q6chm9mjb6yr-stroke" data-item-order="7000000000" transform="translate(558, 179)"></g><g id="g-root-tx_approach_zqx92pmizzt0-stroke" data-item-order="7000000000" transform="translate(182, 323)"></g><g id="g-root-tx_services_8ysxmje0ap-stroke" data-item-order="7000000000" transform="translate(638, 329)"></g><g id="g-root-tx_aidriven_1haphddmj9udk-stroke" data-item-order="7000000000" transform="translate(398, 404)"></g><g id="g-root-tx_solution_mg34mpmjjnr5-stroke" data-item-order="7000000000" transform="translate(262, 137)"></g><g id="g-root-tx_technolo_vj1tmj2scp-stroke" data-item-order="7000000000" transform="translate(226, 581)"></g><g id="g-root-tx_statisti_dkg4dtmjgumi-stroke" data-item-order="7000000000" transform="translate(564, 575)"></g></g></g></svg>