<?xml version="1.0" encoding="utf-8" standalone="yes"?>
<!DOCTYPE svg PUBLIC "-//W3C//DTD SVG 1.1//EN" "http://www.w3.org/Graphics/SVG/1.1/DTD/svg11.dtd">
<svg width="732" height="516" viewBox="0 0 732 516" style="fill:none;stroke:none;fill-rule:evenodd;clip-rule:evenodd;stroke-linecap:round;stroke-linejoin:round;stroke-miterlimit:1.5;" version="1.1" xmlns="http://www.w3.org/2000/svg" xmlns:xlink="http://www.w3.org/1999/xlink"><style class="text-font-style fontImports" data-font-family="Arial"></style><rect id="" x="0" y="0" width="732" height="516" style="fill: #ffffff;"></rect><g id="items" style="isolation: isolate"><g id="blend" style="mix-blend-mode: normal"><g id="g-root-tf_vb384yo7bklo-fill" data-item-order="-377712"><g id="tf_vb384yo7bklo-fill" stroke="none" fill="#ffffff"><g><path d="M 0 0L 732 0L 732 516L 0 516Z"></path></g></g></g><g id="g-root-cp_s_g-s_m7yiuqo77dhn-fill" data-item-order="-299582" transform="translate(194, 134)"><g id="cp_s_g-s_m7yiuqo77dhn-fill" stroke="none" fill="#2cd4bf"><g><path d="M 94 52C 94 75.196 75.196 94 52 94C 45.0303 94 38.4571 92.3023 32.6714 89.2979C 19.2016 82.3033 10 68.2262 10 52C 10 28.804 28.804 10 52 10C 68.2263 10 82.3034 19.2016 89.298 32.6715C 92.3023 38.4572 94 45.0303 94 52ZM 10.109 166L 118 166C 144.51 166 166 144.51 166 118L 166 10.1094C 138.045 11.1272 111.897 19.2283 89.298 32.6715C 92.3023 38.4572 94 45.0303 94 52C 94 75.196 75.196 94 52 94C 45.0303 94 38.4571 92.3023 32.6714 89.2979C 19.2281 111.897 11.1268 138.045 10.109 166Z"></path></g></g></g><g id="g-root-cp_o_g-o_hs50qao77e9x-fill" data-item-order="-299578" transform="translate(194, 302)"><g id="cp_o_g-o_hs50qao77e9x-fill" stroke="none" fill="#58cb9c"><g><path d="M 94 124C 94 130.97 92.3022 137.543 89.2977 143.329C 82.3031 156.798 68.2261 166 52 166C 28.804 166 10 147.196 10 124C 10 107.7736 19.2015 93.6965 32.6711 86.7019C 38.4569 83.6974 45.0302 81.9997 52 81.9997C 75.196 81.9997 94 100.8037 94 124ZM 166 165.891L 166 58C 166 31.4903 144.51 10 118 10L 10.109 10C 11.1268 37.9551 19.228 64.1029 32.6711 86.7019C 38.4569 83.6974 45.0302 81.9997 52 81.9997C 75.196 81.9997 94 100.8037 94 124C 94 130.97 92.3022 137.543 89.2977 143.329C 111.897 156.772 138.045 164.873 166 165.891Z"></path></g></g></g><g id="g-root-cp_t_g-t_hs50qao77e9z-fill" data-item-order="-299574" transform="translate(362, 302)"><g id="cp_t_g-t_hs50qao77e9z-fill" stroke="none" fill="#9cb064"><g><path d="M 166 124C 166 147.196 147.196 166 124 166C 107.7739 166 93.697 156.798 86.7023 143.329C 83.6978 137.543 82 130.97 82 124C 82 100.8037 100.8041 81.9997 124 81.9997C 130.97 81.9997 137.543 83.6974 143.329 86.7019C 156.799 93.6965 166 107.7735 166 124ZM 165.891 10L 58 10C 31.4903 10 10 31.4903 10 58L 10 165.891C 37.9553 164.873 64.1032 156.772 86.7023 143.329C 83.6978 137.543 82 130.97 82 124C 82 100.8037 100.8041 81.9997 124 81.9997C 130.97 81.9997 137.543 83.6974 143.329 86.7019C 156.772 64.1029 164.873 37.9551 165.891 10Z"></path></g></g></g><g id="g-root-cp_w_g-w_dcbiluo77f29-fill" data-item-order="-299570" transform="translate(362, 134)"><g id="cp_w_g-w_dcbiluo77f29-fill" stroke="none" fill="#dc9131"><g><path d="M 166 52C 166 68.2263 156.798 82.3034 143.329 89.298C 137.543 92.3023 130.97 94 124 94C 100.8041 94 82 75.196 82 52C 82 45.0303 83.6977 38.4572 86.7021 32.6715C 93.6966 19.2017 107.7737 10 124 10C 147.196 10 166 28.804 166 52ZM 10 10.1094L 10 118C 10 144.51 31.4903 166 58 166L 165.891 166C 164.873 138.045 156.772 111.897 143.329 89.298C 137.543 92.3023 130.97 94 124 94C 100.8041 94 82 75.196 82 52C 82 45.0303 83.6977 38.4572 86.7021 32.6715C 64.103 19.2284 37.9552 11.1272 10 10.1094Z"></path></g></g></g><g id="g-root-ic_9_i096uqo7a5mq-fill" data-item-order="-2304" transform="translate(212, 152)"><g id="ic_9_i096uqo7a5mq-fill" stroke="none" fill="#ffffff"><g><path d="M 10 10M 14.6 34.099998L 10.74 35.120003C 10.298186 35.238914 9.993428 35.642509 10 36.099998L 10 46.099998C 9.993428 46.557487 10.298186 46.961086 10.74 47.080002L 14.6 48.099998ZM 10 10M 57.259998 35.120003L 53.400002 34.099998L 53.400002 48.099998L 57.259998 47.080002C 57.701813 46.961086 58.006573 46.557487 58 46.099998L 58 36.099998C 58.006573 35.642509 57.701813 35.238914 57.259998 35.120003ZM 24.52 38.32C 24.988251 38.585567 25.27829 39.081688 25.280001 39.620003L 25.279999 41.620003C 25.279957 43.048164 26.431875 44.209015 27.860001 44.220001L 40.139999 44.220001C 41.568123 44.209015 42.720043 43.048164 42.720001 41.619999L 42.720001 39.620003C 42.72171 39.081688 43.011749 38.585567 43.48 38.32L 51.48 33.799999L 51.48 32.459999C 51.476826 26.189093 48.099586 20.404999 42.639999 17.32L 42.639999 24.26L 39.639999 24.26L 39.639999 16C 36.018078 14.750431 32.081917 14.750431 28.459999 16L 28.459999 24.26L 25.459999 24.26L 25.459999 17.32C 20.000414 20.404999 16.623175 26.189093 16.619999 32.459999L 16.619999 33.799999ZM 37.279999 26.32L 45.16 26.32C 45.476452 26.319954 45.779659 26.447018 46.001537 26.672655C 46.223415 26.898293 46.345364 27.203594 46.34 27.52L 46.34 27.92C 46.317104 30.363119 44.525238 32.42881 42.109852 32.796585C 39.694466 33.16436 37.368996 31.725588 36.620003 29.400002L 36.139999 27.860001C 36.009628 27.491278 36.067116 27.082153 36.294056 26.763639C 36.520996 26.445126 36.888916 26.257185 37.279999 26.26ZM 21.66 27.52C 21.654636 27.203594 21.776585 26.898293 21.998463 26.672655C 22.220339 26.447018 22.523548 26.319954 22.84 26.32L 30.719999 26.32C 31.096535 26.323393 31.44964 26.50333 31.673679 26.805979C 31.897718 27.108627 31.966705 27.498886 31.860001 27.860001L 31.379999 29.4C 30.739233 31.480412 28.816854 32.899887 26.639999 32.900002C 25.308762 32.900097 24.0329 32.367191 23.097225 31.420244C 22.161549 30.473295 21.643961 29.191145 21.66 27.860001ZM 45.720001 40.5L 45.720001 41.66C 45.72002 44.745003 43.224983 47.248981 40.139999 47.260002L 27.860001 47.259998C 24.775019 47.248981 22.27998 44.745003 22.279999 41.66L 22.279999 40.5L 16.619999 37.260002L 16.619999 48.82C 16.619999 51.084366 18.455631 52.920002 20.720001 52.919998L 47.279999 52.919998C 49.544369 52.920002 51.380001 51.084366 51.380001 48.82L 51.380001 37.260002Z"></path></g></g></g><g id="g-root-ic_puzz_18gazn6o77dad-fill" data-item-order="-2304" transform="translate(452, 152)"><g id="ic_puzz_18gazn6o77dad-fill" stroke="none" fill="#ffffff"><g><path d="M 16.5 28C 16.365719 27.994276 16.235191 28.045116 16.140154 28.140152C 16.045116 28.235189 15.994278 28.365719 16 28.499998L 16 32C 16 32.552284 16.447716 33 17 33L 22.52 33C 22.810711 32.997471 23.088135 33.121582 23.279999 33.34C 23.469601 33.552742 23.557211 33.837471 23.52 34.120003C 23.509518 34.246449 23.509518 34.37355 23.52 34.5C 23.52 36.432999 25.087004 38 27.02 38C 28.952997 38 30.52 36.432999 30.52 34.5C 30.530481 34.37355 30.530481 34.246449 30.519999 34.119999C 30.48279 33.837471 30.5704 33.552742 30.76 33.34C 30.951866 33.121582 31.229288 32.997471 31.52 33L 34.540001 33C 35.092285 33 35.540001 32.552284 35.540001 32L 35.540001 29.82C 35.542343 29.361645 35.226662 28.962893 34.779999 28.860001C 32.121239 28.362589 30.218819 26.005781 30.29351 23.301922C 30.368202 20.598061 32.397835 18.349873 35.080002 18C 35.320236 17.952971 35.49514 17.744751 35.5 17.5L 35.5 13L 18 13C 16.895432 13 16 13.895431 16 15L 16 18.5C 16 18.776142 16.223858 19 16.5 19C 18.985281 19 21 21.014719 21 23.5C 21 25.985283 18.985281 28 16.5 28ZM 38.5 13C 37.947716 13 37.5 13.447716 37.5 14L 37.5 19.02C 37.502529 19.310711 37.378418 19.588135 37.16 19.779999C 36.947258 19.969601 36.662529 20.057211 36.380001 20.02C 35.04763 19.876951 33.750538 20.507195 33.039589 21.643072C 32.328636 22.77895 32.328636 24.22105 33.039589 25.35693C 33.750538 26.492807 35.04763 27.123051 36.380001 26.980001C 36.656387 26.943329 36.934795 27.031248 37.139999 27.219999C 37.358421 27.411867 37.482529 27.689287 37.48 27.98L 37.48 31.98C 37.48 32.532288 37.927715 32.98 38.48 32.98L 40.16 32.98C 40.618355 32.982346 41.017109 32.666664 41.120003 32.220001C 41.694492 29.722708 43.91748 27.953045 46.48 27.953045C 49.042522 27.953045 51.265511 29.722708 51.84 32.220001C 51.94289 32.666664 52.341644 32.982346 52.799999 32.98L 56 32.98C 56.552284 32.98 57 32.532288 57 31.98L 57 15C 57 13.895431 56.104568 13 55 13L 51.5 13C 51.223858 13 51 13.223858 51 13.5C 51 15.985281 48.985283 18 46.5 18C 44.014717 18 42 15.985281 42 13.5C 41.995834 13.367529 41.946426 13.240479 41.860001 13.139999C 41.759521 13.053572 41.632469 13.004164 41.5 13ZM 35.5 48.98C 35.497471 48.689289 35.621582 48.411865 35.84 48.220001C 36.04863 48.038429 36.326637 47.957954 36.599998 48C 37.932373 48.143051 39.229462 47.512806 39.940414 46.37693C 40.651367 45.241051 40.651367 43.79895 39.940414 42.663074C 39.229462 41.527195 37.932373 40.89695 36.599998 41.040001C 36.318619 41.065094 36.038605 40.978935 35.82 40.800003C 35.601578 40.608131 35.47747 40.330711 35.48 40.040001L 35.48 36C 35.48 35.447716 35.032288 35 34.48 35L 33.299999 35C 32.841644 34.997658 32.442894 35.313335 32.34 35.760002C 31.765509 38.257294 29.542522 40.026955 26.980001 40.026955C 24.417479 40.026955 22.194492 38.257294 21.619999 35.760002C 21.517109 35.313335 21.118355 34.997658 20.66 35L 17 35C 16.447716 35 16 35.447716 16 36L 16 39.5C 16 39.776142 15.776142 40 15.5 40C 13.014719 40 11 42.014717 11 44.5C 11 46.985283 13.014719 49 15.5 49C 15.632471 49.004162 15.75952 49.05357 15.86 49.139999C 15.946428 49.240479 15.995836 49.367527 16 49.5L 16 53C 16 54.104568 16.895432 55 18 55L 35.5 55ZM 50.98 35C 50.689289 35.002529 50.411865 34.878418 50.220001 34.66C 50.030399 34.447258 49.942791 34.162529 49.98 33.880001C 49.990479 33.753548 49.990479 33.62645 49.98 33.5C 49.980003 31.567005 48.412998 30.000002 46.480003 30.000002C 44.547005 30.000002 42.980003 31.567005 42.980003 33.5C 42.969517 33.62645 42.969517 33.753548 42.98 33.879997C 43.017212 34.162529 42.9296 34.447258 42.740002 34.66C 42.548134 34.878418 42.270714 35.002529 41.98 35L 38.5 35C 37.947716 35 37.5 35.447716 37.5 36L 37.5 38.18C 37.497658 38.638355 37.813335 39.037109 38.260002 39.139999C 40.757294 39.714493 42.526955 41.937477 42.526955 44.5C 42.526955 47.062523 40.757294 49.285511 38.260002 49.860001C 37.813335 49.962891 37.497658 50.361645 37.5 50.82L 37.5 54C 37.5 54.552284 37.947716 55 38.5 55L 55 55C 56.104568 55 57 54.104568 57 53L 57 36C 57 35.447716 56.552284 35 56 35Z"></path></g></g></g><g id="g-root-ic_grap_1hjfoxeo78sug-fill" data-item-order="-2304" transform="translate(212, 392)"><g id="ic_grap_1hjfoxeo78sug-fill" stroke="none" fill="#ffffff"><g><path d="M 58 14C 58 11.790861 56.209141 10 54 10L 30 10C 28.89543 10 28 10.895431 28 12C 28 13.104569 28.89543 14 30 14L 53.5 14C 53.776142 14 54 14.223858 54 14.5L 54 34.5C 54 34.776142 53.776142 35 53.5 35L 34 35C 32.895432 35 32 35.895432 32 37C 32 38.104568 32.895432 39 34 39L 35.5 39C 35.776142 39 36 39.223858 36 39.5L 36 46C 35.999493 46.111599 35.956596 46.218838 35.879997 46.299999L 31.58 50.580002C 30.795755 51.364246 30.795755 52.635757 31.58 53.420002C 32.364243 54.204247 33.635757 54.204247 34.419998 53.420002L 37.639999 50.18C 37.734241 50.082226 37.864201 50.026985 38 50.026985C 38.135799 50.026985 38.265759 50.082226 38.360001 50.18L 41.580002 53.419998C 41.955536 53.798626 42.466724 54.011597 43 54.011597C 43.533276 54.011597 44.044468 53.798626 44.419998 53.419998C 44.798626 53.044468 45.011597 52.533276 45.011597 52C 45.011597 51.466724 44.798626 50.955532 44.419998 50.580002L 40.120003 46.299999C 40.043404 46.218838 40.000504 46.111599 40 46L 40 39.5C 40 39.223858 40.223858 39 40.5 39L 54 39C 56.209141 39 58 37.209137 58 35ZM 40.360001 24.82C 40.265759 24.917776 40.135799 24.973013 40 24.973013C 39.864201 24.973013 39.734241 24.917776 39.639999 24.82L 38.419998 23.58C 38.044464 23.201374 37.533276 22.988403 37 22.988403C 36.466724 22.988403 35.955536 23.201374 35.580002 23.58L 31.58 27.58C 31.201374 27.955534 30.988403 28.466724 30.988403 29C 30.988403 29.533276 31.201374 30.044466 31.58 30.42C 31.955534 30.798626 32.466724 31.011597 33 31.011597C 33.533276 31.011597 34.044464 30.798626 34.419998 30.42L 36.639999 28.18C 36.734241 28.082224 36.864201 28.026987 37 28.026987C 37.135799 28.026987 37.265759 28.082224 37.360001 28.18L 38.580002 29.42C 38.955536 29.798626 39.466724 30.011597 40 30.011597C 40.533276 30.011597 41.044464 29.798626 41.419998 29.42L 46.360001 24.48C 46.450729 24.383322 46.577412 24.32848 46.709999 24.32848C 46.842583 24.32848 46.969265 24.383322 47.059998 24.48L 48.299999 25.700001C 48.48056 25.894276 48.734791 26.003233 49 26C 49.12508 26.028334 49.254917 26.028334 49.380001 26C 49.781651 25.83638 50.032047 25.432512 50 25L 50 19C 50 18.447716 49.552284 18 49 18L 43 18C 42.596298 18.002014 42.233402 18.246574 42.080002 18.619999C 41.912445 18.989738 42.001163 19.425266 42.299999 19.700001L 43.52 20.939999C 43.616676 21.030733 43.671516 21.157413 43.671516 21.289999C 43.671516 21.422585 43.616676 21.549267 43.519997 21.639999ZM 10 42.759998C 9.996767 43.025208 10.105723 43.279438 10.3 43.459999C 10.48056 43.654278 10.734793 43.763233 11 43.759998L 14 43.759998C 14.254313 43.758163 14.469488 43.947517 14.5 44.200001L 15.780001 57.099998C 15.831542 57.6129 16.264523 58.002583 16.780001 58L 22.4 58C 22.915478 58.002583 23.348457 57.6129 23.4 57.099998L 24.68 44.200001C 24.701248 43.942749 24.922136 43.748367 25.18 43.759998L 28.1 43.759998C 28.647816 43.749359 29.089359 43.307816 29.1 42.759998L 29.1 37.059998C 29.091208 33.573189 27.192499 30.365288 24.139999 28.68C 23.979141 28.602354 23.877773 28.438606 23.880001 28.26C 23.875408 28.080931 23.966961 27.913088 24.119999 27.82C 27.454414 25.758854 28.846163 21.613869 27.431307 17.958075C 26.016451 14.30228 22.196903 12.174158 18.343672 12.894754C 14.49044 13.615351 11.698093 16.979969 11.7 20.900002C 11.686522 23.630253 13.066385 26.178852 15.360001 27.66C 15.513248 27.762339 15.603729 27.93576 15.6 28.120001C 15.59097 28.295952 15.482233 28.45129 15.32 28.52C 12.074205 30.131371 10.01542 33.436264 10 37.059998ZM 21.040001 35.440002C 21.040001 36.268429 20.368427 36.940002 19.540001 36.940002C 18.711575 36.940002 18.040001 36.268429 18.040001 35.440002L 18.040001 32C 18.040001 31.171574 18.711575 30.5 19.540001 30.5C 20.368427 30.5 21.040001 31.171574 21.040001 32ZM 15.88 19.700001C 15.934255 19.558174 16.041965 19.443283 16.18 19.379999C 16.320524 19.319967 16.479477 19.319967 16.619999 19.380001C 18.232353 20.387848 20.098629 20.915123 22 20.900002C 22.631042 20.90155 23.260717 20.841263 23.880001 20.720001L 24.040001 20.720001C 24.058891 20.764755 24.058891 20.815247 24.040001 20.860001C 24.147766 22.411417 23.381191 23.893393 22.052719 24.701895C 20.724249 25.510397 19.05575 25.510397 17.72728 24.701895C 16.398808 23.893393 15.632233 22.411417 15.74 20.860001C 15.729637 20.468565 15.776807 20.07773 15.88 19.700001Z"></path></g></g></g><g id="g-root-ic_1_hs50qao78rny-fill" data-item-order="-2304" transform="translate(452, 392)"><g id="ic_1_hs50qao78rny-fill" stroke="none" fill="#ffffff"><g><path d="M 30.280001 51.259998C 30.43005 51.000103 30.43005 50.679893 30.279999 50.419998C 30.18788 50.224945 30.02261 50.074047 29.82 50C 29.62936 49.926456 29.502653 49.744316 29.5 49.540001L 29.5 44.5C 29.5 44.223858 29.723858 44 30 44L 33.48 44C 33.853394 44.006485 34.196671 43.795841 34.360001 43.459999L 38.559998 35.459999C 38.732895 35.152534 38.727211 34.775871 38.54512 34.473763C 38.363022 34.171654 38.032623 33.990715 37.68 34L 15.3 34C 12.652719 33.932793 10.374553 35.85849 10 38.479996C 9.85864 39.892189 10.321654 41.298225 11.274445 42.350105C 12.227234 43.401985 13.580754 44.001404 15 44L 26 44C 26.276142 44 26.5 44.223858 26.5 44.5L 26.5 49.5C 26.5 49.776142 26.276142 50 26 50L 20 50C 19.171574 50 18.5 50.671574 18.5 51.5C 18.5 52.32843 19.171574 53 20 53L 28.799999 53C 29.188435 53.002117 29.541458 52.774612 29.700001 52.420002C 29.860001 52 30 51.68 30.280001 51.259998ZM 16 39C 16 37.619289 17.119289 36.5 18.5 36.5C 19.880711 36.5 21 37.619289 21 39C 21 40.380714 19.880711 41.5 18.5 41.5C 17.119289 41.5 16 40.380714 16 39ZM 26 41.5C 24.619289 41.5 23.5 40.380714 23.5 39C 23.5 37.619289 24.619289 36.5 26 36.5C 27.380713 36.5 28.5 37.619289 28.5 39C 28.5 40.380714 27.380713 41.5 26 41.5ZM 12 50C 11.171573 50 10.5 50.671574 10.5 51.5C 10.5 52.32843 11.171573 53 12 53L 14 53C 14.828427 53 15.5 52.32843 15.5 51.5C 15.5 50.671574 14.828427 50 14 50ZM 15 20L 41 20C 43.761425 20 46 17.761423 46 15C 46 12.238577 43.761425 10 41 10L 15 10C 12.238577 10 10 12.238577 10 15C 10 17.761423 12.238577 20 15 20ZM 16 15C 16 13.619288 17.119289 12.5 18.5 12.5C 19.880711 12.5 21 13.619288 21 15C 21 16.380713 19.880711 17.5 18.5 17.5C 17.119289 17.5 16 16.380713 16 15ZM 23.5 15C 23.5 13.619288 24.619289 12.5 26 12.5C 27.380713 12.5 28.5 13.619288 28.5 15C 28.5 16.380713 27.380713 17.5 26 17.5C 24.619289 17.5 23.5 16.380713 23.5 15ZM 45.259998 29.6C 45.719952 28.845232 45.975021 27.983519 46 27.099998C 45.89175 24.227863 43.513969 21.965424 40.639999 22L 15.3 22C 12.652719 21.932793 10.374553 23.858488 10 26.48C 9.85864 27.892189 10.321654 29.298225 11.274445 30.350105C 12.227234 31.401985 13.580754 32.001404 15 32L 40.200001 32C 40.457268 31.993166 40.701515 31.885408 40.880001 31.700001C 41.848755 30.739304 43.121437 30.145386 44.48 30.02C 44.791214 30.009085 45.079578 29.853811 45.259998 29.6ZM 16 27C 16 25.619289 17.119289 24.5 18.5 24.5C 19.880711 24.5 21 25.619289 21 27C 21 28.380713 19.880711 29.5 18.5 29.5C 17.119289 29.5 16 28.380713 16 27ZM 23.5 27C 23.5 25.619289 24.619289 24.5 26 24.5C 27.380713 24.5 28.5 25.619289 28.5 27C 28.5 28.380713 27.380713 29.5 26 29.5C 24.619289 29.5 23.5 28.380713 23.5 27ZM 47.560001 34.540001C 47.056393 33.593769 46.071903 33.002499 45 33.002499C 43.928101 33.002499 42.943611 33.593769 42.440002 34.540001L 32.32 53.82C 31.856815 54.710201 31.894073 55.778038 32.418175 56.633797C 32.942276 57.489555 33.876537 58.00803 34.879997 58L 55.119999 58C 56.123543 57.996628 57.054012 57.474659 57.580002 56.620003C 58.099522 55.768024 58.137421 54.706863 57.68 53.82ZM 43 52.540001C 43 51.435429 43.895432 50.540001 45 50.540001C 46.104568 50.540001 47 51.435429 47 52.540001C 47 53.644569 46.104568 54.540001 45 54.540001C 44.462563 54.540108 43.947697 54.323914 43.571453 53.940144C 43.19521 53.556374 42.98925 53.037331 43 52.5ZM 46.5 47.040001C 46.5 47.868427 45.828426 48.540001 45 48.540001C 44.171574 48.540001 43.5 47.868427 43.5 47.040001L 43.5 41.040001C 43.5 40.211575 44.171574 39.540001 45 39.540001C 45.828426 39.540001 46.5 40.211575 46.5 41.040001Z"></path></g></g></g><g id="g-root-tx_aiinheal_4hazg2o77cp7-fill" data-item-order="0" transform="translate(164, 38)"><g id="tx_aiinheal_4hazg2o77cp7-fill" stroke="none" fill="#000000"><g><text style="font: bold 25px Arial, Helvetica, sans-serif; white-space: pre;" font-weight="bold" font-size="25px" font-family="Arial, Helvetica, sans-serif"><tspan x="13.06" y="42" dominant-baseline="ideographic">AI in Healthcare Transformation</tspan></text></g></g></g><g id="g-root-tx_innovati_1lxdrsio7bklm-fill" data-item-order="0" transform="translate(50, 98)"><g id="tx_innovati_1lxdrsio7bklm-fill" stroke="none" fill="#000000"><g><text style="font: bold 20px Arial, Helvetica, sans-serif; white-space: pre;" font-weight="bold" font-size="20px" font-family="Arial, Helvetica, sans-serif"><tspan x="29.08" y="33" dominant-baseline="ideographic">Innovative </tspan><tspan x="17.25" y="57" dominant-baseline="ideographic">Technology</tspan></text></g></g></g><g id="g-root-tx_implemen_hydrleo7bk0c-fill" data-item-order="0" transform="translate(542, 122)"><g id="tx_implemen_hydrleo7bk0c-fill" stroke="none" fill="#000000"><g><text style="font: bold 20px Arial, Helvetica, sans-serif; white-space: pre;" font-weight="bold" font-size="20px" font-family="Arial, Helvetica, sans-serif"><tspan x="12" y="33" dominant-baseline="ideographic">Implementation </tspan><tspan x="12" y="57" dominant-baseline="ideographic">Complexity</tspan></text></g></g></g><g id="g-root-tx_cuttinge_1lxdrsio7bkln-fill" data-item-order="0" transform="translate(74, 158)"><g id="tx_cuttinge_1lxdrsio7bkln-fill" stroke="none" fill="#000000"><g><text style="font: 15px Arial, Helvetica, sans-serif; white-space: pre;" font-size="15px" font-family="Arial, Helvetica, sans-serif"><tspan x="18.09" y="30" dominant-baseline="ideographic">Cutting-edge </tspan><tspan x="23.13" y="48" dominant-baseline="ideographic">solutions for </tspan><tspan x="33.94" y="66" dominant-baseline="ideographic">healthcare</tspan></text></g></g></g><g id="g-root-tx_requires_dik9gyo7bksl-fill" data-item-order="0" transform="translate(542, 182)"><g id="tx_requires_dik9gyo7bksl-fill" stroke="none" fill="#000000"><g><text style="font: 15px Arial, Helvetica, sans-serif; white-space: pre;" font-size="15px" font-family="Arial, Helvetica, sans-serif"><tspan x="12" y="27" dominant-baseline="ideographic">Requires structured </tspan><tspan x="12" y="45" dominant-baseline="ideographic">approach</tspan></text></g></g></g><g id="g-root-tx_s_v97svmo7bll7-fill" data-item-order="0" transform="translate(278, 218)"><g id="tx_s_v97svmo7bll7-fill" stroke="none" fill="#ffffff"><g><text style="font: bold 30px Arial, Helvetica, sans-serif; white-space: pre;" font-weight="bold" font-size="30px" font-family="Arial, Helvetica, sans-serif"><tspan x="11.99" y="44" dominant-baseline="ideographic">S</tspan></text></g></g></g><g id="g-root-tx_w_1lr50xeo77ev8-fill" data-item-order="0" transform="translate(392, 224)"><g id="tx_w_1lr50xeo77ev8-fill" stroke="none" fill="#ffffff"><g><text style="font: bold 30px Arial, Helvetica, sans-serif; white-space: pre;" font-weight="bold" font-size="30px" font-family="Arial, Helvetica, sans-serif"><tspan x="13.84" y="44" dominant-baseline="ideographic">W</tspan></text></g></g></g><g id="g-root-tx_o_vb384yo7a77l-fill" data-item-order="0" transform="translate(284, 332)"><g id="tx_o_vb384yo7a77l-fill" stroke="none" fill="#ffffff"><g><text style="font: bold 30px Arial, Helvetica, sans-serif; white-space: pre;" font-weight="bold" font-size="30px" font-family="Arial, Helvetica, sans-serif"><tspan x="16.33" y="44" dominant-baseline="ideographic">O</tspan></text></g></g></g><g id="g-root-tx_t_1lz971uo78s27-fill" data-item-order="0" transform="translate(398, 332)"><g id="tx_t_1lz971uo78s27-fill" stroke="none" fill="#ffffff"><g><text style="font: bold 30px Arial, Helvetica, sans-serif; white-space: pre;" font-weight="bold" font-size="30px" font-family="Arial, Helvetica, sans-serif"><tspan x="12.84" y="44" dominant-baseline="ideographic">T</tspan></text></g></g></g><g id="g-root-tx_marketgr_73r3mo7bmdk-fill" data-item-order="0" transform="translate(86, 356)"><g id="tx_marketgr_73r3mo7bmdk-fill" stroke="none" fill="#000000"><g><text style="font: bold 20px Arial, Helvetica, sans-serif; white-space: pre;" font-weight="bold" font-size="20px" font-family="Arial, Helvetica, sans-serif"><tspan x="27.52" y="33" dominant-baseline="ideographic">Market </tspan><tspan x="22" y="57" dominant-baseline="ideographic">Growth</tspan></text></g></g></g><g id="g-root-tx_regulato_4mx982o7blla-fill" data-item-order="0" transform="translate(542, 368)"><g id="tx_regulato_4mx982o7blla-fill" stroke="none" fill="#000000"><g><text style="font: bold 20px Arial, Helvetica, sans-serif; white-space: pre;" font-weight="bold" font-size="20px" font-family="Arial, Helvetica, sans-serif"><tspan x="12" y="33" dominant-baseline="ideographic">Regulatory </tspan><tspan x="12" y="57" dominant-baseline="ideographic">Compliance</tspan></text></g></g></g><g id="g-root-tx_expandin_1ut0s1eo7bjsx-fill" data-item-order="0" transform="translate(62, 416)"><g id="tx_expandin_1ut0s1eo7bjsx-fill" stroke="none" fill="#000000"><g><text style="font: 15px Arial, Helvetica, sans-serif; white-space: pre;" font-size="15px" font-family="Arial, Helvetica, sans-serif"><tspan x="27.59" y="30" dominant-baseline="ideographic">Expanding AI </tspan><tspan x="20.94" y="48" dominant-baseline="ideographic">applications in </tspan><tspan x="45.94" y="66" dominant-baseline="ideographic">healthcare</tspan></text></g></g></g><g id="g-root-tx_adherenc_73r3mo7bmdj-fill" data-item-order="0" transform="translate(542, 428)"><g id="tx_adherenc_73r3mo7bmdj-fill" stroke="none" fill="#000000"><g><text style="font: 15px Arial, Helvetica, sans-serif; white-space: pre;" font-size="15px" font-family="Arial, Helvetica, sans-serif"><tspan x="12" y="27" dominant-baseline="ideographic">Adherence to strict </tspan><tspan x="12" y="45" dominant-baseline="ideographic">standards</tspan></text></g></g></g><g id="g-root-tf_vb384yo7bklo-stroke" data-item-order="-377712"></g><g id="g-root-cp_s_g-s_m7yiuqo77dhn-stroke" data-item-order="-299582" transform="translate(194, 134)"><g id="cp_s_g-s_m7yiuqo77dhn-stroke" fill="none" stroke-linecap="round" stroke-linejoin="round" stroke-miterlimit="4" stroke="#ffffff" stroke-width="2"><g><path d="M 94 52C 94 75.196 75.196 94 52 94C 45.0303 94 38.4571 92.3023 32.6714 89.2979C 19.2016 82.3033 10 68.2262 10 52C 10 28.804 28.804 10 52 10C 68.2263 10 82.3034 19.2016 89.298 32.6715C 92.3023 38.4572 94 45.0303 94 52ZM 10.109 166.0003L 118 166.0003C 144.5096 166.0003 166 144.51 166 118.0003L 166 10.1094C 138.0448 11.1272 111.897 19.2283 89.298 32.6715C 92.3023 38.4572 94 45.0303 94 52C 94 75.196 75.196 94 52 94C 45.0303 94 38.4571 92.3023 32.6714 89.2979C 19.2281 111.8971 11.1268 138.045 10.109 166.0003Z"></path></g></g></g><g id="g-root-cp_o_g-o_hs50qao77e9x-stroke" data-item-order="-299578" transform="translate(194, 302)"><g id="cp_o_g-o_hs50qao77e9x-stroke" fill="none" stroke-linecap="round" stroke-linejoin="round" stroke-miterlimit="4" stroke="#ffffff" stroke-width="2"><g><path d="M 94 123.9997C 94 130.9696 92.3022 137.5429 89.2977 143.3287C 82.3031 156.7983 68.2261 165.9997 52 165.9997C 28.804 165.9997 10 147.1956 10 123.9997C 10 107.7736 19.2014 93.6965 32.6711 86.7019C 38.4569 83.6974 45.0302 81.9997 52 81.9997C 75.196 81.9997 94 100.8037 94 123.9997ZM 166 165.891L 166 58C 166 31.4903 144.5096 10 118 10L 10.109 10C 11.1268 37.9551 19.228 64.1029 32.6711 86.7019C 38.4569 83.6974 45.0302 81.9997 52 81.9997C 75.196 81.9997 94 100.8037 94 123.9997C 94 130.9696 92.3022 137.5429 89.2977 143.3287C 111.8968 156.772 138.0447 164.8731 166 165.891Z"></path></g></g></g><g id="g-root-cp_t_g-t_hs50qao77e9z-stroke" data-item-order="-299574" transform="translate(362, 302)"><g id="cp_t_g-t_hs50qao77e9z-stroke" fill="none" stroke-linecap="round" stroke-linejoin="round" stroke-miterlimit="4" stroke="#ffffff" stroke-width="2"><g><path d="M 166 123.9997C 166 147.1957 147.196 165.9997 124 165.9997C 107.7739 165.9997 93.6969 156.7983 86.7023 143.3287C 83.6978 137.5429 82 130.9696 82 123.9997C 82 100.8037 100.8041 81.9997 124 81.9997C 130.9699 81.9997 137.5431 83.6974 143.3289 86.7019C 156.7986 93.6965 166 107.7735 166 123.9997ZM 165.8909 10L 58 10C 31.4903 10 10 31.4903 10 58L 10 165.891C 37.9553 164.8732 64.1032 156.7719 86.7023 143.3287C 83.6978 137.5429 82 130.9696 82 123.9997C 82 100.8037 100.8041 81.9997 124 81.9997C 130.9699 81.9997 137.5431 83.6974 143.3289 86.7019C 156.772 64.1029 164.8731 37.9551 165.8909 10Z"></path></g></g></g><g id="g-root-cp_w_g-w_dcbiluo77f29-stroke" data-item-order="-299570" transform="translate(362, 134)"><g id="cp_w_g-w_dcbiluo77f29-stroke" fill="none" stroke-linecap="round" stroke-linejoin="round" stroke-miterlimit="4" stroke="#ffffff" stroke-width="2"><g><path d="M 166 52C 166 68.2263 156.7984 82.3034 143.3286 89.298C 137.5429 92.3023 130.9697 94 124 94C 100.8041 94 82 75.196 82 52C 82 45.0303 83.6977 38.4572 86.7021 32.6715C 93.6966 19.2017 107.7737 10 124 10C 147.196 10 166 28.804 166 52ZM 10 10.1094L 10 118.0003C 10 144.51 31.4903 166.0003 58 166.0003L 165.8909 166.0003C 164.8731 138.045 156.7719 111.8971 143.3286 89.298C 137.5429 92.3023 130.9697 94 124 94C 100.8041 94 82 75.196 82 52C 82 45.0303 83.6977 38.4572 86.7021 32.6715C 64.103 19.2284 37.9552 11.1272 10 10.1094Z"></path></g></g></g><g id="g-root-ic_9_i096uqo7a5mq-stroke" data-item-order="-2304" transform="translate(212, 152)"></g><g id="g-root-ic_puzz_18gazn6o77dad-stroke" data-item-order="-2304" transform="translate(452, 152)"></g><g id="g-root-ic_grap_1hjfoxeo78sug-stroke" data-item-order="-2304" transform="translate(212, 392)"></g><g id="g-root-ic_1_hs50qao78rny-stroke" data-item-order="-2304" transform="translate(452, 392)"></g><g id="g-root-tx_aiinheal_4hazg2o77cp7-stroke" data-item-order="0" transform="translate(164, 38)"></g><g id="g-root-tx_innovati_1lxdrsio7bklm-stroke" data-item-order="0" transform="translate(50, 98)"></g><g id="g-root-tx_implemen_hydrleo7bk0c-stroke" data-item-order="0" transform="translate(542, 122)"></g><g id="g-root-tx_cuttinge_1lxdrsio7bkln-stroke" data-item-order="0" transform="translate(74, 158)"></g><g id="g-root-tx_requires_dik9gyo7bksl-stroke" data-item-order="0" transform="translate(542, 182)"></g><g id="g-root-tx_s_v97svmo7bll7-stroke" data-item-order="0" transform="translate(278, 218)"></g><g id="g-root-tx_w_1lr50xeo77ev8-stroke" data-item-order="0" transform="translate(392, 224)"></g><g id="g-root-tx_o_vb384yo7a77l-stroke" data-item-order="0" transform="translate(284, 332)"></g><g id="g-root-tx_t_1lz971uo78s27-stroke" data-item-order="0" transform="translate(398, 332)"></g><g id="g-root-tx_marketgr_73r3mo7bmdk-stroke" data-item-order="0" transform="translate(86, 356)"></g><g id="g-root-tx_regulato_4mx982o7blla-stroke" data-item-order="0" transform="translate(542, 368)"></g><g id="g-root-tx_expandin_1ut0s1eo7bjsx-stroke" data-item-order="0" transform="translate(62, 416)"></g><g id="g-root-tx_adherenc_73r3mo7bmdj-stroke" data-item-order="0" transform="translate(542, 428)"></g></g></g></svg>