<?xml version="1.0" encoding="utf-8" standalone="yes"?>
<!DOCTYPE svg PUBLIC "-//W3C//DTD SVG 1.1//EN" "http://www.w3.org/Graphics/SVG/1.1/DTD/svg11.dtd">
<svg width="912" height="822" viewBox="0 0 912 822" style="fill:none;stroke:none;fill-rule:evenodd;clip-rule:evenodd;stroke-linecap:round;stroke-linejoin:round;stroke-miterlimit:1.5;" version="1.1" xmlns="http://www.w3.org/2000/svg" xmlns:xlink="http://www.w3.org/1999/xlink"><style class="text-font-style fontImports" data-font-family="Arial"></style><rect id="" x="0" y="0" width="912" height="822" style="fill: #ffffff;"></rect><g id="items" style="isolation: isolate"><g id="blend" style="mix-blend-mode: normal"><g id="g-root-tf_4my1nkpbe7m2-fill" data-item-order="-749664"><g id="tf_4my1nkpbe7m2-fill" stroke="none" fill="#ffffff"><g><path d="M 0 0L 912 0L 912 822L 0 822Z"></path></g></g></g><g id="g-root-ro_hxs2xspb4buz-fill" data-item-order="-18144" transform="translate(374, 287)"><g id="ro_hxs2xspb4buz-fill" stroke="none" fill="#000000"><g><path d="M 34 10L 130 10C 130 10 154 10 154 34L 154 112C 154 112 154 136 130 136L 34 136C 34 136 10 136 10 112L 10 34C 10 34 10 10 34 10"></path></g></g></g><g id="g-root-ro_1usf3dspbct8h-fill" data-item-order="-15552" transform="translate(38, 380)"><g id="ro_1usf3dspbct8h-fill" stroke="none" fill="#9cb064"><g><path d="M 22 10L 286 10C 286 10 298 10 298 22L 298 52C 298 52 298 64 286 64L 22 64C 22 64 10 64 10 52L 10 22C 10 22 10 10 22 10"></path></g></g></g><g id="g-root-ro_qu1k9spb8kjo-fill" data-item-order="-14256" transform="translate(566, 362)"><g id="ro_qu1k9spb8kjo-fill" stroke="none" fill="#dc9131"><g><path d="M 22 10L 262 10C 262 10 274 10 274 22L 274 52C 274 52 274 64 262 64L 22 64C 22 64 10 64 10 52L 10 22C 10 22 10 10 22 10"></path></g></g></g><g id="g-root-ro_6i2g0pb5rly-fill" data-item-order="-9072" transform="translate(362, 602)"><g id="ro_6i2g0pb5rly-fill" stroke="none" fill="#58cb9c"><g><path d="M 22 10L 166 10C 166 10 178 10 178 22L 178 52C 178 52 178 64 166 64L 22 64C 22 64 10 64 10 52L 10 22C 10 22 10 10 22 10"></path></g></g></g><g id="g-root-ro_1qbcn34pbe58k-fill" data-item-order="-8424" transform="translate(170, 122)"><g id="ro_1qbcn34pbe58k-fill" stroke="none" fill="#9a6ab3"><g><path d="M 22 10L 154 10C 154 10 166 10 166 22L 166 52C 166 52 166 64 154 64L 22 64C 22 64 10 64 10 52L 10 22C 10 22 10 10 22 10"></path></g></g></g><g id="g-root-ro_1lw5m1spb76dl-fill" data-item-order="-8424" transform="translate(566, 140)"><g id="ro_1lw5m1spb76dl-fill" stroke="none" fill="#6366f1"><g><path d="M 22 10L 154 10C 154 10 166 10 166 22L 166 52C 166 52 166 64 154 64L 22 64C 22 64 10 64 10 52L 10 22C 10 22 10 10 22 10"></path></g></g></g><g id="g-root-cu_hyek0wpbe611-fill" data-item-order="0" transform="translate(284, 176)"></g><g id="g-root-cu_1lvj4yopbe60w-fill" data-item-order="0" transform="translate(518, 167)"></g><g id="g-root-tx_fasterre_7r0m8pbbc3m-fill" data-item-order="0" transform="translate(110, 188)"><g id="tx_fasterre_7r0m8pbbc3m-fill" stroke="none" fill="#fc7a1e"><g><text style="font: 20px Arial, Helvetica, sans-serif; white-space: pre;" font-size="20px" font-family="Arial, Helvetica, sans-serif"><tspan x="12.85" y="33" dominant-baseline="ideographic">Faster Responses</tspan></text></g></g></g><g id="g-root-cu_me825cpbe58m-fill" data-item-order="0" transform="translate(284, 176)"></g><g id="g-root-cu_me825cpbe58p-fill" data-item-order="0" transform="translate(284, 176)"></g><g id="g-root-cu_hyek0wpbe60z-fill" data-item-order="0" transform="translate(284, 176)"></g><g id="g-root-tx_supportv_144vlk0pbbcwd-fill" data-item-order="0" transform="translate(416, 740)"><g id="tx_supportv_144vlk0pbbcwd-fill" stroke="none" fill="#fc7a1e"><g><text style="font: 20px Arial, Helvetica, sans-serif; white-space: pre;" font-size="20px" font-family="Arial, Helvetica, sans-serif"><tspan x="11.84" y="33" dominant-baseline="ideographic">Support Volumes</tspan></text></g></g></g><g id="g-root-cu_hyek0wpbe613-fill" data-item-order="0" transform="translate(284, 176)"></g><g id="g-root-cu_144vlk0pbe58r-fill" data-item-order="0" transform="translate(590, 194)"></g><g id="g-root-cu_144vlk0pbe58u-fill" data-item-order="0" transform="translate(590, 194)"></g><g id="g-root-cu_zp23fkpbe614-fill" data-item-order="0" transform="translate(590, 194)"></g><g id="g-root-cu_zp23fkpbe616-fill" data-item-order="0" transform="translate(590, 194)"></g><g id="g-root-tx_intellig_zp23fkpbbdom-fill" data-item-order="0" transform="translate(620, 206)"><g id="tx_intellig_zp23fkpbbdom-fill" stroke="none" fill="#fc7a1e"><g><text style="font: 20px Arial, Helvetica, sans-serif; white-space: pre;" font-size="20px" font-family="Arial, Helvetica, sans-serif"><tspan x="14.45" y="33" dominant-baseline="ideographic">Intelligent Virtual Assistants</tspan></text></g></g></g><g id="g-root-tx_csatimpr_7r0m8pbbc3n-fill" data-item-order="0" transform="translate(98, 224)"><g id="tx_csatimpr_7r0m8pbbc3n-fill" stroke="none" fill="#fc7a1e"><g><text style="font: 20px Arial, Helvetica, sans-serif; white-space: pre;" font-size="20px" font-family="Arial, Helvetica, sans-serif"><tspan x="13.12" y="33" dominant-baseline="ideographic">CSAT Improvement</tspan></text></g></g></g><g id="g-root-tx_aiaugmen_zp23fkpbbdon-fill" data-item-order="0" transform="translate(614, 242)"><g id="tx_aiaugmen_zp23fkpbbdon-fill" stroke="none" fill="#fc7a1e"><g><text style="font: 20px Arial, Helvetica, sans-serif; white-space: pre;" font-size="20px" font-family="Arial, Helvetica, sans-serif"><tspan x="11.91" y="33" dominant-baseline="ideographic">AI-Augmented Agent Support</tspan></text></g></g></g><g id="g-root-tx_costredu_1qd82cgpbbcp8-fill" data-item-order="0" transform="translate(134, 260)"><g id="tx_costredu_1qd82cgpbbcp8-fill" stroke="none" fill="#fc7a1e"><g><text style="font: 20px Arial, Helvetica, sans-serif; white-space: pre;" font-size="20px" font-family="Arial, Helvetica, sans-serif"><tspan x="13.63" y="33" dominant-baseline="ideographic">Cost Reduction</tspan></text></g></g></g><g id="g-root-tx_intellig_v98lb4pbbegw-fill" data-item-order="0" transform="translate(614, 278)"><g id="tx_intellig_v98lb4pbbegw-fill" stroke="none" fill="#fc7a1e"><g><text style="font: 20px Arial, Helvetica, sans-serif; white-space: pre;" font-size="20px" font-family="Arial, Helvetica, sans-serif"><tspan x="15.05" y="33" dominant-baseline="ideographic">Intelligent Ticket Routing</tspan></text></g></g></g><g id="g-root-tx_scalabil_1qd82cgpbbcp9-fill" data-item-order="0" transform="translate(182, 296)"><g id="tx_scalabil_1qd82cgpbbcp9-fill" stroke="none" fill="#fc7a1e"><g><text style="font: 20px Arial, Helvetica, sans-serif; white-space: pre;" font-size="20px" font-family="Arial, Helvetica, sans-serif"><tspan x="12.98" y="33" dominant-baseline="ideographic">Scalability</tspan></text></g></g></g><g id="g-root-cu_18k2mlcpbe7m4-fill" data-item-order="0" transform="translate(386, 656)"></g><g id="g-root-tx_customer_v98lb4pbbegx-fill" data-item-order="0" transform="translate(614, 314)"><g id="tx_customer_v98lb4pbbegx-fill" stroke="none" fill="#fc7a1e"><g><text style="font: 20px Arial, Helvetica, sans-serif; white-space: pre;" font-size="20px" font-family="Arial, Helvetica, sans-serif"><tspan x="14.41" y="33" dominant-baseline="ideographic">Customer Analytics</tspan></text></g></g></g><g id="g-root-tx_customer_1lxek80pbbdhi-fill" data-item-order="0" transform="translate(38, 332)"><g id="tx_customer_1lxek80pbbdhi-fill" stroke="none" fill="#fc7a1e"><g><text style="font: 20px Arial, Helvetica, sans-serif; white-space: pre;" font-size="20px" font-family="Arial, Helvetica, sans-serif"><tspan x="12.72" y="33" dominant-baseline="ideographic">Customer Retention Boost</tspan></text></g></g></g><g id="g-root-cu_1hfpmu8pbe6td-fill" data-item-order="0" transform="translate(326, 149)"></g><g id="g-root-cu_1czw4pspbe6tq-fill" data-item-order="0" transform="translate(326, 371)"></g><g id="g-root-cu_18k2mlcpbe7m7-fill" data-item-order="0" transform="translate(386, 656)"></g><g id="g-root-cu_1czw4pspbe6tn-fill" data-item-order="0" transform="translate(518, 371)"></g><g id="g-root-cu_144vlk0pbe58p-fill" data-item-order="0" transform="translate(386, 656)"></g><g id="g-root-tx_customer_1d0ilswpbbc3n-fill" data-item-order="0" transform="translate(410, 668)"><g id="tx_customer_1d0ilswpbbc3n-fill" stroke="none" fill="#fc7a1e"><g><text style="font: 20px Arial, Helvetica, sans-serif; white-space: pre;" font-size="20px" font-family="Arial, Helvetica, sans-serif"><tspan x="14.62" y="33" dominant-baseline="ideographic">Customer Expectations</tspan></text></g></g></g><g id="g-root-tx_multicha_144vlk0pbbcwc-fill" data-item-order="0" transform="translate(410, 704)"><g id="tx_multicha_144vlk0pbbcwc-fill" stroke="none" fill="#fc7a1e"><g><text style="font: 20px Arial, Helvetica, sans-serif; white-space: pre;" font-size="20px" font-family="Arial, Helvetica, sans-serif"><tspan x="16.73" y="33" dominant-baseline="ideographic">Multi-Channel Demands</tspan></text></g></g></g><g id="g-root-cu_1hfpmu8pbe619-fill" data-item-order="0" transform="translate(446, 413)"></g><g id="g-root-cu_zp23fkpbe618-fill" data-item-order="0" transform="translate(590, 416)"></g><g id="g-root-cu_v98lb4pbe6tj-fill" data-item-order="0" transform="translate(590, 416)"></g><g id="g-root-cu_v98lb4pbe6tl-fill" data-item-order="0" transform="translate(590, 416)"></g><g id="g-root-cu_v98lb4pbe6tn-fill" data-item-order="0" transform="translate(590, 416)"></g><g id="g-root-cu_qtf36opbe7lx-fill" data-item-order="0" transform="translate(277.7272644042969, 434)"></g><g id="g-root-tx_supporta_me825cpbbc3u-fill" data-item-order="0" transform="translate(614, 428)"><g id="tx_supporta_me825cpbbc3u-fill" stroke="none" fill="#fc7a1e"><g><text style="font: 20px Arial, Helvetica, sans-serif; white-space: pre;" font-size="20px" font-family="Arial, Helvetica, sans-serif"><tspan x="13.51" y="33" dominant-baseline="ideographic">Support Analysis</tspan></text></g></g></g><g id="g-root-tx_conversa_hyek0wpbbcw6-fill" data-item-order="0" transform="translate(20, 446)"><g id="tx_conversa_hyek0wpbbcw6-fill" stroke="none" fill="#fc7a1e"><g><text style="font: 20px Arial, Helvetica, sans-serif; white-space: pre;" font-size="20px" font-family="Arial, Helvetica, sans-serif"><tspan x="12.61" y="33" dominant-baseline="ideographic">Conversational AI Platforms</tspan></text></g></g></g><g id="g-root-cu_qtf36opbe7m0-fill" data-item-order="0" transform="translate(284, 434)"></g><g id="g-root-cu_qtf36opbe7m2-fill" data-item-order="0" transform="translate(284, 434)"></g><g id="g-root-cu_me825cpbe58k-fill" data-item-order="0" transform="translate(284, 434)"></g><g id="g-root-tx_solution_me825cpbbc3v-fill" data-item-order="0" transform="translate(614, 464)"><g id="tx_solution_me825cpbbc3v-fill" stroke="none" fill="#fc7a1e"><g><text style="font: 20px Arial, Helvetica, sans-serif; white-space: pre;" font-size="20px" font-family="Arial, Helvetica, sans-serif"><tspan x="11.95" y="33" dominant-baseline="ideographic">Solution Design</tspan></text></g></g></g><g id="g-root-tx_crminteg_92rjs0pbbdov-fill" data-item-order="0" transform="translate(110, 482)"><g id="tx_crminteg_92rjs0pbbdov-fill" stroke="none" fill="#fc7a1e"><g><text style="font: 20px Arial, Helvetica, sans-serif; white-space: pre;" font-size="20px" font-family="Arial, Helvetica, sans-serif"><tspan x="16.19" y="33" dominant-baseline="ideographic">CRM Integrations</tspan></text></g></g></g><g id="g-root-tx_aitraini_me825cpbbc3w-fill" data-item-order="0" transform="translate(614, 500)"><g id="tx_aitraini_me825cpbbc3w-fill" stroke="none" fill="#fc7a1e"><g><text style="font: 20px Arial, Helvetica, sans-serif; white-space: pre;" font-size="20px" font-family="Arial, Helvetica, sans-serif"><tspan x="16.2" y="33" dominant-baseline="ideographic">AI Training</tspan></text></g></g></g><g id="g-root-tx_sentimen_dil1wgpbbdog-fill" data-item-order="0" transform="translate(98, 518)"><g id="tx_sentimen_dil1wgpbbdog-fill" stroke="none" fill="#fc7a1e"><g><text style="font: 20px Arial, Helvetica, sans-serif; white-space: pre;" font-size="20px" font-family="Arial, Helvetica, sans-serif"><tspan x="15.51" y="33" dominant-baseline="ideographic">Sentiment Analysis</tspan></text></g></g></g><g id="g-root-tx_optimiza_hyek0wpbbcw5-fill" data-item-order="0" transform="translate(614, 536)"><g id="tx_optimiza_hyek0wpbbcw5-fill" stroke="none" fill="#fc7a1e"><g><text style="font: 20px Arial, Helvetica, sans-serif; white-space: pre;" font-size="20px" font-family="Arial, Helvetica, sans-serif"><tspan x="14.42" y="33" dominant-baseline="ideographic">Optimization</tspan></text></g></g></g><g id="g-root-tx_multicha_4my1nkpbbeh5-fill" data-item-order="0" transform="translate(110, 554)"><g id="tx_multicha_4my1nkpbbeh5-fill" stroke="none" fill="#fc7a1e"><g><text style="font: 20px Arial, Helvetica, sans-serif; white-space: pre;" font-size="20px" font-family="Arial, Helvetica, sans-serif"><tspan x="14.51" y="33" dominant-baseline="ideographic">Multichannel APIs</tspan></text></g></g></g><g id="g-root-tx_aipowere_dil1wgpbe6td-fill" data-item-order="0" transform="translate(56, 38)"><g id="tx_aipowere_dil1wgpbe6td-fill" stroke="none" fill="#000000"><g><text style="font: bold 25px Arial, Helvetica, sans-serif; white-space: pre;" font-weight="bold" font-size="25px" font-family="Arial, Helvetica, sans-serif"><tspan x="13.12" y="42" dominant-baseline="ideographic">AI-Powered Customer Support: Transforming Service Operations</tspan></text></g></g></g><g id="g-root-ic_clou_qtf36opb4b2a-fill" data-item-order="5999997696" transform="translate(422, 311)"><g id="ic_clou_qtf36opb4b2a-fill" stroke="none" fill="#ffffff"><g><path d="M 52.139999 54.48L 51.040001 54.48L 51.040001 44.48L 52.139999 44.48C 52.96843 44.48 53.639999 43.80843 53.639999 42.98C 53.639999 42.151573 52.96843 41.480003 52.139999 41.480003L 46.919998 41.48C 46.091576 41.480003 45.420002 42.151573 45.420002 42.98C 45.420002 43.80843 46.091576 44.48 46.920002 44.48L 48 44.48L 48 54.48L 46.880001 54.48C 46.051575 54.48 45.380001 55.151573 45.380001 55.98C 45.380001 56.80843 46.051575 57.48 46.880001 57.48L 52.099998 57.48C 52.928429 57.48 53.600002 56.80843 53.600002 55.98C 53.600002 55.151573 52.928429 54.48 52.100002 54.48ZM 36.16 41.419998L 32.16 41.419998C 31.331573 41.419998 30.66 42.091576 30.66 42.920002L 30.66 56C 30.66 56.82843 31.331573 57.5 32.16 57.5C 32.988426 57.5 33.66 56.82843 33.66 56L 33.66 52.259998L 36.080002 52.259998C 39.072979 52.25943 41.498966 49.832981 41.498966 46.84C 41.498966 43.847019 39.072979 41.42057 36.080002 41.419998ZM 36.16 49.259998L 33.739998 49.259998L 33.739998 44.419998L 36.16 44.419998C 37.496529 44.420002 38.580002 45.503471 38.580002 46.84C 38.580002 48.176533 37.496529 49.260002 36.160004 49.260002ZM 25.4 46C 25.037273 43.393642 22.791239 41.464798 20.16 41.5C 17.536337 41.474937 15.301781 43.401279 14.94 45.999996L 13.46 55.84C 13.338526 56.387905 13.53306 56.957783 13.964203 57.317047C 14.395346 57.676308 14.990971 57.764847 15.507971 57.546524C 16.024971 57.328205 16.376854 56.839546 16.42 56.280003L 16.92 52.98L 23.42 52.98L 24 56.200001C 24.100681 56.93845 24.734753 57.486835 25.48 57.480003L 25.700001 57.48C 26.516237 57.35659 27.079346 56.59684 26.960001 55.780003ZM 17.4 50L 18 46.360001C 18.181488 45.247364 19.142662 44.430267 20.27 44.430267C 21.397339 44.430267 22.358513 45.247364 22.539999 46.359997L 22.959999 50ZM 57 28.52C 57.001762 25.804268 55.898918 23.204611 53.944958 21.318546C 51.990993 19.43248 49.353973 18.422234 46.639999 18.52C 43.910072 12.729048 37.599674 9.527731 31.314335 10.745161C 25.028994 11.962592 20.370277 17.288559 20 23.68C 17.794804 23.229866 15.504026 23.793852 13.759861 25.216316C 12.015696 26.638779 11.002542 28.769333 11 31.02C 11 38.639999 19 38.52 19 38.52L 48 38.52C 48 38.52 57 37.34 57 28.52Z"></path></g></g></g><g id="g-root-ic_imgu_1ursmaopb75kw-fill" data-item-order="5999999100" transform="translate(578, 152)"><g id="ic_imgu_1ursmaopb75kw-fill" stroke="none" fill="#ffffff"><g><path d="M 37.337502 10L 22.5625 10C 20.959467 9.999274 19.546299 11.051524 19.087502 12.587501C 19.081751 12.674906 19.081751 12.762594 19.0875 12.85L 10 21.875L 10 40L 28.125 40L 37.149998 30.975L 37.412498 30.912498C 38.926552 30.460493 39.973408 29.079859 40.000004 27.500002L 40 12.6625C 40 11.192042 38.807961 10 37.337502 10ZM 37.5 27.5C 37.50013 28.003799 37.161682 28.444803 36.674999 28.574999C 36.25705 28.662409 35.823395 28.530426 35.525002 28.225L 32.5 25.175001C 32.012451 24.690346 31.225048 24.690346 30.737499 25.175001L 23.875 32.112499C 22.456984 31.712973 21.165596 30.955357 20.125 29.9125C 19.092136 28.889772 18.320431 27.633606 17.875 26.25L 24.824999 19.2875C 25.060518 19.056711 25.195305 18.742212 25.200001 18.4125C 25.198614 18.078444 25.06357 17.758839 24.824999 17.525L 21.825001 14.525C 21.519573 14.226606 21.387592 13.792952 21.475 13.375C 21.590874 12.866526 22.041008 12.504348 22.5625 12.5L 37.337502 12.5C 37.427246 12.5 37.499996 12.572754 37.499996 12.662499ZM 17.1 18.125L 17.4125 18.125L 17.4125 17.8125C 17.4125 17.467321 17.692322 17.1875 18.0375 17.1875C 18.382679 17.1875 18.6625 17.467321 18.6625 17.8125L 18.6625 18.125L 18.975 18.125C 19.320179 18.125 19.6 18.404821 19.6 18.75C 19.6 19.095179 19.320179 19.375 18.975 19.375L 18.6625 19.375L 18.6625 19.6875C 18.6625 20.032677 18.382679 20.3125 18.0375 20.3125C 17.692322 20.3125 17.4125 20.032677 17.4125 19.6875L 17.4125 19.375L 17.1 19.375C 16.754822 19.375 16.475 19.095179 16.475 18.75C 16.475 18.404821 16.754822 18.125 17.1 18.125ZM 14.2 31.875L 13.8875 31.875L 13.8875 32.1875C 13.8875 32.532677 13.607678 32.8125 13.2625 32.8125C 12.920115 32.805851 12.64415 32.529884 12.6375 32.1875L 12.6375 31.875L 12.325 31.875C 11.982615 31.868351 11.70665 31.592386 11.7 31.25C 11.7 30.904823 11.979822 30.625 12.325 30.625L 12.6375 30.625L 12.6375 30.3125C 12.6375 29.967323 12.917322 29.6875 13.2625 29.6875C 13.607678 29.6875 13.8875 29.967323 13.8875 30.3125L 13.8875 30.625L 14.2 30.625C 14.545178 30.625 14.825 30.904823 14.825 31.25C 14.805138 31.580452 14.531048 31.838097 14.2 31.8375ZM 14.2 24.125L 13.8875 24.125L 13.8875 24.4375C 13.8875 24.782679 13.607678 25.0625 13.2625 25.0625C 12.920115 25.055849 12.64415 24.779884 12.6375 24.4375L 12.6375 24.125L 12.325 24.125C 11.982615 24.118349 11.70665 23.842384 11.7 23.5C 11.7 23.154823 11.979822 22.875 12.325 22.875L 12.6375 22.875L 12.6375 22.5C 12.6375 22.154823 12.917322 21.875 13.2625 21.875C 13.607678 21.875 13.8875 22.154823 13.8875 22.5L 13.8875 22.8125L 14.2 22.8125C 14.545178 22.8125 14.825 23.092323 14.825 23.4375C 14.831807 23.607548 14.768977 23.77302 14.651021 23.895693C 14.533065 24.018368 14.370184 24.087637 14.2 24.087502ZM 19.725 37.362499L 19.4125 37.362499L 19.4125 37.674999C 19.4125 38.020176 19.132677 38.299999 18.7875 38.299999C 18.445114 38.29335 18.169149 38.017384 18.1625 37.674999L 18.1625 37.362499L 17.85 37.362499C 17.507614 37.35585 17.231649 37.079884 17.225 36.737499C 17.225 36.392323 17.504822 36.112499 17.85 36.112499L 18.1625 36.112499L 18.1625 35.799999C 18.1625 35.454823 18.442322 35.174999 18.7875 35.174999C 19.132677 35.174999 19.4125 35.454823 19.4125 35.799999L 19.4125 36.112499L 19.725 36.112499C 20.070179 36.112499 20.35 36.392323 20.35 36.737499C 20.35 37.082676 20.070179 37.362499 19.725 37.362499ZM 27.474998 37.362499L 27.162498 37.362499L 27.162498 37.674999C 27.162498 38.020176 26.882679 38.299999 26.537498 38.299999C 26.195114 38.29335 25.919149 38.017384 25.912498 37.674999L 25.912498 37.362499L 25.599998 37.362499C 25.257614 37.35585 24.981649 37.079884 24.974998 36.737499C 24.974998 36.392323 25.254822 36.112499 25.599998 36.112499L 25.912498 36.112499L 25.912498 35.799999C 25.912498 35.454823 26.192322 35.174999 26.537498 35.174999C 26.882679 35.174999 27.162498 35.454823 27.162498 35.799999L 27.162498 36.112499L 27.5 36.112499C 27.845177 36.112499 28.125 36.392323 28.125 36.737499C 28.125 37.082676 27.845177 37.362499 27.5 37.362499ZM 32.1875 32.587502L 31.875 32.587502L 31.875 32.900002C 31.875 33.245178 31.595177 33.525002 31.25 33.525002C 30.904823 33.525002 30.625 33.245178 30.625 32.900002L 30.625 32.587502L 30.3125 32.587502C 29.967323 32.587502 29.6875 32.307678 29.6875 31.9625C 29.6875 31.617321 29.967323 31.3375 30.3125 31.3375L 30.625 31.3375L 30.625 31.025C 30.625 30.679821 30.904823 30.4 31.25 30.4C 31.595177 30.4 31.875 30.679821 31.875 31.025L 31.875 31.3375L 32.1875 31.3375C 32.532677 31.3375 32.8125 31.617321 32.8125 31.9625C 32.8125 32.307678 32.532677 32.587502 32.1875 32.587502Z"></path></g></g></g><g id="g-root-ic_4_1qbcn34pbe58j-fill" data-item-order="5999999100" transform="translate(278, 134)"><g id="ic_4_1qbcn34pbe58j-fill" stroke="none" fill="#ffffff"><g><path d="M 30.625 14.3875C 30.211754 14.384167 29.814285 14.545998 29.520895 14.837042C 29.227505 15.128085 29.062487 15.52424 29.0625 15.9375L 29.0625 17.5L 32.1875 17.5L 32.1875 15.924999C 32.180626 15.068947 31.481054 14.380569 30.625 14.3875ZM 37.712502 10L 22.7125 10C 21.447109 9.999981 20.419376 11.022129 20.4125 12.2875L 20.4125 18.5375C 22.179285 20.082767 22.446997 22.732569 21.025002 24.6L 27.1875 24.6L 27.0875 28.125C 27.06216 28.404102 27.233408 28.663568 27.499998 28.749998C 27.586792 28.788328 27.680166 28.809549 27.775 28.8125C 27.922432 28.814466 28.065212 28.760921 28.174999 28.6625L 32.887501 24.65L 37.774998 24.65C 39.040527 24.609198 40.035065 23.553198 40 22.2875L 40 12.2875C 40.000004 11.024149 38.975853 10 37.712502 10ZM 34.0625 20.625C 34.0625 21.142767 33.642765 21.5625 33.125 21.5625C 32.607235 21.5625 32.1875 21.142767 32.1875 20.625L 32.1875 19.375L 29.0625 19.375L 29.0625 20.625C 29.0625 21.142767 28.642767 21.5625 28.125 21.5625C 27.607233 21.5625 27.1875 21.142767 27.1875 20.625L 27.1875 15.9375C 27.187502 14.039021 28.726522 12.5 30.625 12.5C 32.523479 12.5 34.0625 14.039021 34.0625 15.9375ZM 18.4375 25.6875L 18.4375 24.525C 19.728951 24.068403 20.503632 22.747814 20.271996 21.397751C 20.040361 20.047688 18.869789 19.06085 17.5 19.06085C 16.130211 19.06085 14.959639 20.047688 14.728004 21.397751C 14.49637 22.747814 15.271049 24.068403 16.5625 24.525L 16.5625 25.6875C 12.813889 26.159781 10.001852 29.346756 10 33.125L 10 37.5C 10 38.880714 11.119288 40 12.5 40L 22.5 40C 23.880713 40 25 38.880714 25 37.5L 25 33.125C 24.998148 29.346756 22.186111 26.159781 18.4375 25.6875ZM 20.3125 29.6875C 21.002857 29.6875 21.5625 30.247145 21.5625 30.9375C 21.5625 31.627855 21.002857 32.1875 20.3125 32.1875C 19.622145 32.1875 19.0625 31.627855 19.0625 30.9375C 19.0625 30.247145 19.622145 29.6875 20.3125 29.6875ZM 14.6875 29.6875C 15.377856 29.6875 15.9375 30.247145 15.9375 30.9375C 15.9375 31.627855 15.377856 32.1875 14.6875 32.1875C 13.997144 32.1875 13.4375 31.627855 13.4375 30.9375C 13.4375 30.247145 13.997144 29.6875 14.6875 29.6875ZM 22.5 37.5L 12.5 37.5L 12.5 35L 22.5 35Z"></path></g></g></g><g id="g-root-ic_api_qu1k9spb8kjn-fill" data-item-order="5999999100" transform="translate(578, 374)"><g id="ic_api_qu1k9spb8kjn-fill" stroke="none" fill="#ffffff"><g><path d="M 38.912498 37.962502L 38.5 37.962502L 38.5 32.787498L 38.912498 32.787498C 39.430267 32.787502 39.850002 32.367767 39.850002 31.850002C 39.850002 31.332233 39.430267 30.912502 38.912502 30.912502L 36.25 30.912498C 35.732235 30.912502 35.3125 31.332233 35.3125 31.850002C 35.3125 32.367767 35.732235 32.787502 36.25 32.787502L 36.662498 32.787498L 36.662498 37.962502L 36.25 37.962502C 35.732235 37.962502 35.3125 38.382233 35.3125 38.900002C 35.3125 39.417767 35.732235 39.837502 36.25 39.837502L 38.950001 39.837502C 39.46777 39.837502 39.887501 39.417767 39.887501 38.900002C 39.887501 38.382233 39.46777 37.962502 38.950001 37.962502ZM 30.8125 30.912498L 28.75 30.912498C 28.232233 30.912498 27.8125 31.332233 27.8125 31.850002L 27.8125 38.900002C 27.8125 39.417767 28.232233 39.837502 28.75 39.837502C 29.267767 39.837502 29.6875 39.417767 29.6875 38.900002L 29.6875 36.837498L 30.775002 36.837498C 32.410957 36.837234 33.737019 35.510956 33.737019 33.875C 33.737019 32.23904 32.410957 30.912764 30.774998 30.912498ZM 30.8125 34.962498L 29.725 34.962498L 29.725 32.787498L 30.8125 32.787498C 31.413189 32.787392 31.900198 33.274311 31.900198 33.875C 31.900198 34.475685 31.413189 34.962608 30.8125 34.962498ZM 24.9125 33.375C 24.684526 31.971195 23.472195 30.939857 22.049999 30.939857C 20.627806 30.939857 19.415472 31.971195 19.1875 33.375C 19.1875 33.762501 18.5625 37.674999 18.424999 38.762501C 18.389378 39.009613 18.453793 39.260727 18.603968 39.460175C 18.754141 39.659626 18.977669 39.790939 19.225 39.825001C 19.471264 39.864113 19.722805 39.800743 19.921144 39.649628C 20.119484 39.498512 20.247345 39.272812 20.275 39.025002L 20.5375 37.162498L 23.549999 37.162498L 23.8125 39.024998C 23.886164 39.485695 24.283455 39.824711 24.75 39.824997L 24.875 39.825001C 25.122332 39.790939 25.34586 39.659626 25.496035 39.460175C 25.646208 39.260727 25.710623 39.009613 25.674999 38.762501C 25.549999 37.737499 25 33.75 24.9125 33.375ZM 20.8125 35.299999L 21.0375 33.650002C 21.122093 33.155525 21.548365 32.792404 22.050001 32.787498C 22.550755 32.788155 22.975815 33.15477 23.049999 33.650002L 23.2875 35.299999ZM 18.887501 31.15C 19.670244 30.211433 20.827881 29.666933 22.050001 29.6625C 23.412613 29.671534 24.685619 30.34301 25.462498 31.462498C 25.908596 31.338852 26.346882 31.188583 26.775 31.012501C 27.104509 30.208344 27.881083 29.677521 28.75 29.662498L 30.775002 29.662498C 31.387894 29.66021 31.99382 29.79249 32.549999 30.049999C 32.535774 29.776283 32.419876 29.517736 32.225002 29.325001L 30.5 27.6C 30.999474 26.593649 31.36508 25.526249 31.587502 24.424999L 34.087502 24.424999C 34.68811 24.424999 35.174999 23.93811 35.174999 23.3375L 35.174999 22.0875C 35.174999 21.486891 34.68811 21 34.087502 21L 31.587502 21C 31.36508 19.898752 30.999474 18.831352 30.5 17.824999L 32.262501 16.125C 32.68689 15.700357 32.68689 15.012142 32.262501 14.5875L 30.725 13.05C 30.300358 12.625609 29.612143 12.625609 29.1875 13.05L 27.5 14.775C 26.478001 14.295839 25.398155 13.951298 24.287498 13.75L 24.2875 11.25C 24.2875 10.64939 23.80061 10.1625 23.199999 10.1625L 22.112499 10.1625C 21.51189 10.1625 21.025 10.64939 21.025 11.25L 21.025 13.75C 19.923752 13.972421 18.856352 14.338026 17.85 14.8375L 16.125 13.05C 15.700357 12.625609 15.012142 12.625609 14.5875 13.05L 13.05 14.5875C 12.625609 15.012142 12.625609 15.700357 13.05 16.125L 14.775 17.85C 14.297073 18.859398 13.952515 19.926689 13.75 21.025L 11.25 21.025C 10.64939 21.025 10.1625 21.51189 10.1625 22.112499L 10.1625 23.362499C 10.1625 23.96311 10.64939 24.449999 11.25 24.449999L 13.75 24.450001C 13.972421 25.551249 14.338026 26.618649 14.8375 27.625L 13.05 29.325001C 12.625609 29.749643 12.625609 30.437859 13.05 30.862501L 14.5875 32.400002C 15.012142 32.82439 15.700357 32.82439 16.125 32.400002L 17.85 30.675001C 18.180626 30.864637 18.527906 31.023634 18.887501 31.15ZM 22.725 18.387501C 24.658573 18.382444 26.404333 19.54398 27.146616 21.329405C 27.888899 23.114832 27.481167 25.171671 26.113918 26.538918C 24.746672 27.906166 22.689831 28.3139 20.904406 27.571617C 19.11898 26.829332 17.957445 25.083572 17.9625 23.150002C 17.96937 20.522594 20.097595 18.394369 22.725 18.387501Z"></path></g></g></g><g id="g-root-ic_2_74jj4pbcsnc-fill" data-item-order="5999999100" transform="translate(278, 392)"><g id="ic_2_74jj4pbcsnc-fill" stroke="none" fill="#ffffff"><g><path d="M 36.875 10L 14.375 10C 12.64911 10 11.25 11.39911 11.25 13.125L 11.25 26.15C 11.97026 25.500458 12.7887 24.968893 13.675 24.575001C 12.296436 22.628967 12.598743 19.958076 14.377386 18.369394C 16.156029 16.780712 18.843973 16.780712 20.622614 18.369394C 22.401258 19.958076 22.703564 22.628967 21.325001 24.575001C 24.494463 25.986895 26.621447 29.037817 26.849998 32.5L 36.849998 32.5C 37.683125 32.506668 38.484417 32.18037 39.075886 31.593594C 39.667358 31.006821 40.000027 30.208151 40 29.375L 40 13.125C 40 11.39911 38.600891 10 36.875 10ZM 35.9375 26.25C 35.9375 26.767767 35.517769 27.1875 35 27.1875C 34.482235 27.1875 34.0625 26.767767 34.0625 26.25L 34.0625 24.0625L 28.8375 24.0625L 28.8375 26.25C 28.837502 26.767767 28.417767 27.1875 27.900002 27.1875C 27.382233 27.1875 26.962502 26.767767 26.962502 26.25L 26.9625 19.6C 26.963259 17.12216 28.972158 15.113876 31.449997 15.113876C 33.927837 15.113876 35.936737 17.12216 35.937496 19.599998ZM 31.4375 17C 30.00156 17 28.837498 18.164059 28.837498 19.599998L 28.8375 22.1875L 34.0625 22.1875L 34.0625 19.5875C 34.048756 18.149542 32.875504 16.993053 31.4375 17ZM 18.4375 25.6875L 18.4375 24.525C 19.728951 24.068403 20.503632 22.747814 20.271996 21.397751C 20.040361 20.047688 18.869789 19.06085 17.5 19.06085C 16.130211 19.06085 14.959639 20.047688 14.728004 21.397751C 14.49637 22.747814 15.271049 24.068403 16.5625 24.525L 16.5625 25.6875C 12.813889 26.159781 10.001852 29.346756 10 33.125L 10 37.5C 10 38.880714 11.119288 40 12.5 40L 22.5 40C 23.880713 40 25 38.880714 25 37.5L 25 33.125C 24.998148 29.346756 22.186111 26.159781 18.4375 25.6875ZM 20.3125 29.6875C 21.002857 29.6875 21.5625 30.247145 21.5625 30.9375C 21.5625 31.627855 21.002857 32.1875 20.3125 32.1875C 19.622145 32.1875 19.0625 31.627855 19.0625 30.9375C 19.0625 30.247145 19.622145 29.6875 20.3125 29.6875ZM 14.6875 29.6875C 15.377856 29.6875 15.9375 30.247145 15.9375 30.9375C 15.9375 31.627855 15.377856 32.1875 14.6875 32.1875C 13.997144 32.1875 13.4375 31.627855 13.4375 30.9375C 13.4375 30.247145 13.997144 29.6875 14.6875 29.6875ZM 22.5 37.5L 12.5 37.5L 12.5 35L 22.5 35Z"></path></g></g></g><g id="g-root-ic_head_4mbkkgpb5qtp-fill" data-item-order="5999999100" transform="translate(374, 614)"><g id="ic_head_4mbkkgpb5qtp-fill" stroke="none" fill="#ffffff"><g><path d="M 37.9375 20.15L 37.049999 20.15C 35.924606 14.280521 30.776327 10.046325 24.800001 10.075C 18.9125 10.075 12.8375 14.025 12.8375 20.5875C 12.613732 21.159939 12.333163 21.708511 12 22.225C 11.125 23.75 10.125 25.512501 10.2375 26.975L 10.2375 27.125C 10.212899 27.509083 10.313801 27.890755 10.525 28.2125C 10.855384 28.676407 11.381029 28.962286 11.95 28.987501L 12.875 28.987499C 12.875 30.625 13.1125 33.362499 14.125 34.387501C 15.1375 35.412498 16.362499 35.637501 18.375 35.637501L 18.375 38.9375C 18.375 39.455269 18.794733 39.875 19.3125 39.875C 19.830267 39.875 20.25 39.455269 20.25 38.9375L 20.25 34.75C 20.25 34.232235 19.830267 33.8125 19.3125 33.8125C 16.975 33.8125 16.0375 33.650002 15.4625 33.074997C 14.8875 32.5 14.7125 30.050001 14.75 28.075001C 14.758057 27.817539 14.658393 27.56838 14.475 27.387501C 14.285625 27.19231 14.021678 27.087643 13.75 27.099998C 13.75 27.1 12.8125 27.1 12.0875 27.1C 12.093716 27.012611 12.093716 26.924891 12.0875 26.8375C 12.32854 25.515827 12.853071 24.262068 13.625 23.1625C 14.166266 22.420321 14.533667 21.565901 14.700001 20.6625C 14.7 15.2375 19.825001 11.9875 24.7875 11.9875C 29.738411 11.896587 34.065174 15.313004 35.125 20.15L 30.887499 20.15C 31.410177 20.862864 31.741541 21.697729 31.849998 22.575001L 36.25 22.575001C 36.595177 22.575001 36.875 22.854822 36.875 23.200001C 36.875 23.545177 36.595177 23.825001 36.25 23.825001L 31.849998 23.825001C 31.739389 24.701717 31.408232 25.536062 30.887499 26.249998L 34.912498 26.25C 34.290192 28.330544 32.888546 30.090437 31 31.1625C 30.720789 31.332478 30.550272 31.635618 30.550001 31.9625L 30.550001 38.974998C 30.550001 39.492767 30.969734 39.912498 31.487501 39.912498C 32.005268 39.912498 32.424999 39.492767 32.424999 38.974998L 32.424999 32.5C 34.650246 31.064686 36.235455 28.825691 36.850002 26.250002L 37.9375 26.25C 38.42701 26.250011 38.89629 26.054703 39.241249 25.707397C 39.586208 25.36009 39.778332 24.889498 39.775002 24.400002L 39.775002 21.987499C 39.775002 20.972677 38.952324 20.15 37.9375 20.15ZM 26.549999 19.275C 24.868917 19.248724 23.3578 20.296061 22.792322 21.879402C 22.226843 23.462742 22.732607 25.230392 24.050001 26.275002L 22.799999 28.262499C 22.529234 28.691322 22.05715 28.950966 21.549999 28.950001L 20.85 28.950001C 20.419447 28.138651 19.491606 27.724867 18.600288 27.946712C 17.708969 28.168556 17.083338 28.968988 17.083338 29.887501C 17.083338 30.806011 17.708969 31.606445 18.600288 31.828289C 19.491606 32.050133 20.419447 31.636351 20.85 30.825001L 21.5625 30.825001C 22.707733 30.82724 23.774137 30.242136 24.387501 29.275L 25.8125 27.0625C 26.055098 27.112812 26.30224 27.137945 26.549999 27.137501C 28.007399 27.219713 29.390686 26.488918 30.144159 25.238701C 30.897633 23.988482 30.897633 22.424019 30.144159 21.1738C 29.390686 19.923582 28.007399 19.192789 26.550001 19.275002Z"></path></g></g></g><g id="g-root-tx_solution_6i2g0pb74zr-fill" data-item-order="6000000000" transform="translate(614, 155)"><g id="tx_solution_6i2g0pb74zr-fill" stroke="none" fill="#ffffff"><g><text style="font: 20px Arial, Helvetica, sans-serif; white-space: pre;" font-size="20px" font-family="Arial, Helvetica, sans-serif"><tspan x="16.86" y="33" dominant-baseline="ideographic">Solutions</tspan></text></g></g></g><g id="g-root-tx_aiengine_v8m480pb4dft-fill" data-item-order="6000000000" transform="translate(398, 365)"><g id="tx_aiengine_v8m480pb4dft-fill" stroke="none" fill="#ffffff"><g><text style="font: 20px Arial, Helvetica, sans-serif; white-space: pre;" font-size="20px" font-family="Arial, Helvetica, sans-serif"><tspan x="14.63" y="33" dominant-baseline="ideographic">AI Engine</tspan></text></g></g></g><g id="g-root-tx_technolo_4my1nkpbcrv3-fill" data-item-order="6000000000" transform="translate(56, 395)"><g id="tx_technolo_4my1nkpbcrv3-fill" stroke="none" fill="#ffffff"><g><text style="font: 20px Arial, Helvetica, sans-serif; white-space: pre;" font-size="20px" font-family="Arial, Helvetica, sans-serif"><tspan x="11.82" y="33" dominant-baseline="ideographic">Technological Strengths</tspan></text></g></g></g><g id="g-root-tx_implemen_v9v2e8pb8jre-fill" data-item-order="6000000000" transform="translate(614, 377)"><g id="tx_implemen_v9v2e8pb8jre-fill" stroke="none" fill="#ffffff"><g><text style="font: 20px Arial, Helvetica, sans-serif; white-space: pre;" font-size="20px" font-family="Arial, Helvetica, sans-serif"><tspan x="15.28" y="33" dominant-baseline="ideographic">Implementation Steps</tspan></text></g></g></g><g id="g-root-tx_statisti_1uqjo4gpbe7m2-fill" data-item-order="6000000000" transform="translate(188, 137)"><g id="tx_statisti_1uqjo4gpbe7m2-fill" stroke="none" fill="#ffffff"><g><text style="font: 20px Arial, Helvetica, sans-serif; white-space: pre;" font-size="20px" font-family="Arial, Helvetica, sans-serif"><tspan x="11.98" y="33" dominant-baseline="ideographic">Statistics</tspan></text></g></g></g><g id="g-root-tx_challeng_dhyktcpb5q10-fill" data-item-order="6000000000" transform="translate(410, 617)"><g id="tx_challeng_dhyktcpb5q10-fill" stroke="none" fill="#ffffff"><g><text style="font: 20px Arial, Helvetica, sans-serif; white-space: pre;" font-size="20px" font-family="Arial, Helvetica, sans-serif"><tspan x="13.96" y="33" dominant-baseline="ideographic">Challenges</tspan></text></g></g></g><g id="g-root-tf_4my1nkpbe7m2-stroke" data-item-order="-749664"></g><g id="g-root-ro_hxs2xspb4buz-stroke" data-item-order="-18144" transform="translate(374, 287)"></g><g id="g-root-ro_1usf3dspbct8h-stroke" data-item-order="-15552" transform="translate(38, 380)"></g><g id="g-root-ro_qu1k9spb8kjo-stroke" data-item-order="-14256" transform="translate(566, 362)"></g><g id="g-root-ro_6i2g0pb5rly-stroke" data-item-order="-9072" transform="translate(362, 602)"></g><g id="g-root-ro_1qbcn34pbe58k-stroke" data-item-order="-8424" transform="translate(170, 122)"></g><g id="g-root-ro_1lw5m1spb76dl-stroke" data-item-order="-8424" transform="translate(566, 140)"></g><g id="g-root-cu_hyek0wpbe611-stroke" data-item-order="0" transform="translate(284, 176)"><g id="cu_hyek0wpbe611-stroke" fill="none" stroke-linecap="round" stroke-linejoin="round" stroke-miterlimit="4" stroke="#000000" stroke-width="2" stroke-dasharray="5.0, 7.0"><g><path d="M 28 10L 28 76L 28 142L 19 142L 10 142"></path></g></g></g><g id="g-root-cu_1lvj4yopbe60w-stroke" data-item-order="0" transform="translate(518, 167)"><g id="cu_1lvj4yopbe60w-stroke" fill="none" stroke-linecap="round" stroke-linejoin="round" stroke-miterlimit="4" stroke="#000000" stroke-width="2" stroke-dasharray="5.0, 7.0"><g><path d="M 10 172L 13 172L 13.1 172C 24.642755 172.000003 34.000004 162.642754 34.000003 151.100002L 34 151L 34 30.9C 33.999999 19.357249 43.357248 10.000001 54.899999 10.000002L 55 10L 58 10"></path></g></g></g><g id="g-root-tx_fasterre_7r0m8pbbc3m-stroke" data-item-order="0" transform="translate(110, 188)"></g><g id="g-root-cu_me825cpbe58m-stroke" data-item-order="0" transform="translate(284, 176)"><g id="cu_me825cpbe58m-stroke" fill="none" stroke-linecap="round" stroke-linejoin="round" stroke-miterlimit="4" stroke="#000000" stroke-width="2" stroke-dasharray="5.0, 7.0"><g><path d="M 28 10L 28 22L 28 34L 19 34L 10 34"></path></g></g></g><g id="g-root-cu_me825cpbe58p-stroke" data-item-order="0" transform="translate(284, 176)"><g id="cu_me825cpbe58p-stroke" fill="none" stroke-linecap="round" stroke-linejoin="round" stroke-miterlimit="4" stroke="#000000" stroke-width="2" stroke-dasharray="5.0, 7.0"><g><path d="M 28 10L 28 40L 28 70L 19 70L 10 70"></path></g></g></g><g id="g-root-cu_hyek0wpbe60z-stroke" data-item-order="0" transform="translate(284, 176)"><g id="cu_hyek0wpbe60z-stroke" fill="none" stroke-linecap="round" stroke-linejoin="round" stroke-miterlimit="4" stroke="#000000" stroke-width="2" stroke-dasharray="5.0, 7.0"><g><path d="M 28 10L 28 58L 28 106L 19 106L 10 106"></path></g></g></g><g id="g-root-tx_supportv_144vlk0pbbcwd-stroke" data-item-order="0" transform="translate(416, 740)"></g><g id="g-root-cu_hyek0wpbe613-stroke" data-item-order="0" transform="translate(284, 176)"><g id="cu_hyek0wpbe613-stroke" fill="none" stroke-linecap="round" stroke-linejoin="round" stroke-miterlimit="4" stroke="#000000" stroke-width="2" stroke-dasharray="5.0, 7.0"><g><path d="M 28 10L 28 31L 28 166C 28.000011 172.627427 22.627428 178.000011 16.00001 178.000011L 15.9 178L 10 178"></path></g></g></g><g id="g-root-cu_144vlk0pbe58r-stroke" data-item-order="0" transform="translate(590, 194)"><g id="cu_144vlk0pbe58r-stroke" fill="none" stroke-linecap="round" stroke-linejoin="round" stroke-miterlimit="4" stroke="#000000" stroke-width="2" stroke-dasharray="5.0, 7.0"><g><path d="M 10 10L 10 22L 10 34L 22.1 34L 34.3 34"></path></g></g></g><g id="g-root-cu_144vlk0pbe58u-stroke" data-item-order="0" transform="translate(590, 194)"><g id="cu_144vlk0pbe58u-stroke" fill="none" stroke-linecap="round" stroke-linejoin="round" stroke-miterlimit="4" stroke="#000000" stroke-width="2" stroke-dasharray="5.0, 7.0"><g><path d="M 10 10L 10 40L 10 70L 19 70L 28 70"></path></g></g></g><g id="g-root-cu_zp23fkpbe614-stroke" data-item-order="0" transform="translate(590, 194)"><g id="cu_zp23fkpbe614-stroke" fill="none" stroke-linecap="round" stroke-linejoin="round" stroke-miterlimit="4" stroke="#000000" stroke-width="2" stroke-dasharray="5.0, 7.0"><g><path d="M 10 10L 10 58L 10 106L 19 106L 28 106"></path></g></g></g><g id="g-root-cu_zp23fkpbe616-stroke" data-item-order="0" transform="translate(590, 194)"><g id="cu_zp23fkpbe616-stroke" fill="none" stroke-linecap="round" stroke-linejoin="round" stroke-miterlimit="4" stroke="#000000" stroke-width="2" stroke-dasharray="5.0, 7.0"><g><path d="M 10 10L 10 26.5L 10 130C 10.000005 136.627425 15.372589 142.000008 22.000006 142.000007L 22.1 142L 28 142"></path></g></g></g><g id="g-root-tx_intellig_zp23fkpbbdom-stroke" data-item-order="0" transform="translate(620, 206)"></g><g id="g-root-tx_csatimpr_7r0m8pbbc3n-stroke" data-item-order="0" transform="translate(98, 224)"></g><g id="g-root-tx_aiaugmen_zp23fkpbbdon-stroke" data-item-order="0" transform="translate(614, 242)"></g><g id="g-root-tx_costredu_1qd82cgpbbcp8-stroke" data-item-order="0" transform="translate(134, 260)"></g><g id="g-root-tx_intellig_v98lb4pbbegw-stroke" data-item-order="0" transform="translate(614, 278)"></g><g id="g-root-tx_scalabil_1qd82cgpbbcp9-stroke" data-item-order="0" transform="translate(182, 296)"></g><g id="g-root-cu_18k2mlcpbe7m4-stroke" data-item-order="0" transform="translate(386, 656)"><g id="cu_18k2mlcpbe7m4-stroke" fill="none" stroke-linecap="round" stroke-linejoin="round" stroke-miterlimit="4" stroke="#000000" stroke-width="2" stroke-dasharray="5.0, 7.0"><g><path d="M 10 10L 10 22L 10 34L 19 34L 28 34"></path></g></g></g><g id="g-root-tx_customer_v98lb4pbbegx-stroke" data-item-order="0" transform="translate(614, 314)"></g><g id="g-root-tx_customer_1lxek80pbbdhi-stroke" data-item-order="0" transform="translate(38, 332)"></g><g id="g-root-cu_1hfpmu8pbe6td-stroke" data-item-order="0" transform="translate(326, 149)"><g id="cu_1hfpmu8pbe6td-stroke" fill="none" stroke-linecap="round" stroke-linejoin="round" stroke-miterlimit="4" stroke="#000000" stroke-width="2" stroke-dasharray="5.0, 7.0"><g><path d="M 58 190L 55 190L 54.9 190C 43.35725 190.000002 34.000001 180.642753 34.000001 169.100001L 34 169L 34 30.9C 33.999998 19.357248 24.64275 10 13.1 10L 13 10L 10 10"></path></g></g></g><g id="g-root-cu_1czw4pspbe6tq-stroke" data-item-order="0" transform="translate(326, 371)"><g id="cu_1czw4pspbe6tq-stroke" fill="none" stroke-linecap="round" stroke-linejoin="round" stroke-miterlimit="4" stroke="#000000" stroke-width="2" stroke-dasharray="5.0, 7.0"><g><path d="M 58 10L 55 10L 54.9 10C 50.350902 9.994769 45.487624 11.792068 41.1 15.099998C 38.462623 17.103929 35.872373 21.810158 34 28.000001C 32.127628 34.189843 29.537377 38.896072 26.9 40.900001C 22.512376 44.207931 17.649098 46.00523 13.099999 46.000002L 13 46L 10 46"></path></g></g></g><g id="g-root-cu_18k2mlcpbe7m7-stroke" data-item-order="0" transform="translate(386, 656)"><g id="cu_18k2mlcpbe7m7-stroke" fill="none" stroke-linecap="round" stroke-linejoin="round" stroke-miterlimit="4" stroke="#000000" stroke-width="2" stroke-dasharray="5.0, 7.0"><g><path d="M 10 10L 10 40L 10 70L 19 70L 28 70"></path></g></g></g><g id="g-root-cu_1czw4pspbe6tn-stroke" data-item-order="0" transform="translate(518, 371)"><g id="cu_1czw4pspbe6tn-stroke" fill="none" stroke-linecap="round" stroke-linejoin="round" stroke-miterlimit="4" stroke="#000000" stroke-width="2" stroke-dasharray="5.0, 7.0"><g><path d="M 10 10L 13 10L 13.1 10C 16.63228 9.979927 20.514747 10.763232 24.5 12.300001C 26.884298 13.264007 30.256797 15.642506 34.000001 19.000001C 37.743204 22.357495 41.115704 24.735995 43.500001 25.700001C 47.485253 27.236771 51.36772 28.020075 54.9 28.000003L 55 28L 58 28"></path></g></g></g><g id="g-root-cu_144vlk0pbe58p-stroke" data-item-order="0" transform="translate(386, 656)"><g id="cu_144vlk0pbe58p-stroke" fill="none" stroke-linecap="round" stroke-linejoin="round" stroke-miterlimit="4" stroke="#000000" stroke-width="2" stroke-dasharray="5.0, 7.0"><g><path d="M 10 10L 10 22L 10 94C 10.000004 100.627423 15.372587 106.000006 22.000005 106.000005L 22.1 106L 34.4 106"></path></g></g></g><g id="g-root-tx_customer_1d0ilswpbbc3n-stroke" data-item-order="0" transform="translate(410, 668)"></g><g id="g-root-tx_multicha_144vlk0pbbcwc-stroke" data-item-order="0" transform="translate(410, 704)"></g><g id="g-root-cu_1hfpmu8pbe619-stroke" data-item-order="0" transform="translate(446, 413)"><g id="cu_1hfpmu8pbe619-stroke" fill="none" stroke-linecap="round" stroke-linejoin="round" stroke-miterlimit="4" stroke="#000000" stroke-width="2" stroke-dasharray="5.0, 7.0"><g><path d="M 10 10L 10 104.5L 10 199"></path></g></g></g><g id="g-root-cu_zp23fkpbe618-stroke" data-item-order="0" transform="translate(590, 416)"><g id="cu_zp23fkpbe618-stroke" fill="none" stroke-linecap="round" stroke-linejoin="round" stroke-miterlimit="4" stroke="#000000" stroke-width="2" stroke-dasharray="5.0, 7.0"><g><path d="M 10 10L 10 22L 10 34L 19 34L 28 34"></path></g></g></g><g id="g-root-cu_v98lb4pbe6tj-stroke" data-item-order="0" transform="translate(590, 416)"><g id="cu_v98lb4pbe6tj-stroke" fill="none" stroke-linecap="round" stroke-linejoin="round" stroke-miterlimit="4" stroke="#000000" stroke-width="2" stroke-dasharray="5.0, 7.0"><g><path d="M 10 10L 10 40L 10 70L 19 70L 28 70"></path></g></g></g><g id="g-root-cu_v98lb4pbe6tl-stroke" data-item-order="0" transform="translate(590, 416)"><g id="cu_v98lb4pbe6tl-stroke" fill="none" stroke-linecap="round" stroke-linejoin="round" stroke-miterlimit="4" stroke="#000000" stroke-width="2" stroke-dasharray="5.0, 7.0"><g><path d="M 10 10L 10 58L 10 106L 19 106L 28 106"></path></g></g></g><g id="g-root-cu_v98lb4pbe6tn-stroke" data-item-order="0" transform="translate(590, 416)"><g id="cu_v98lb4pbe6tn-stroke" fill="none" stroke-linecap="round" stroke-linejoin="round" stroke-miterlimit="4" stroke="#000000" stroke-width="2" stroke-dasharray="5.0, 7.0"><g><path d="M 10 10L 10 26.5L 10 130C 10.000005 136.627425 15.372589 142.000008 22.000006 142.000007L 22.1 142L 28 142"></path></g></g></g><g id="g-root-cu_qtf36opbe7lx-stroke" data-item-order="0" transform="translate(277.7272644042969, 434)"><g id="cu_qtf36opbe7lx-stroke" fill="none" stroke-linecap="round" stroke-linejoin="round" stroke-miterlimit="4" stroke="#000000" stroke-width="2" stroke-dasharray="5.0, 7.0"><g><path d="M 34.3 10L 34.3 22L 34.3 34L 22.1 34L 10 34"></path></g></g></g><g id="g-root-tx_supporta_me825cpbbc3u-stroke" data-item-order="0" transform="translate(614, 428)"></g><g id="g-root-tx_conversa_hyek0wpbbcw6-stroke" data-item-order="0" transform="translate(20, 446)"></g><g id="g-root-cu_qtf36opbe7m0-stroke" data-item-order="0" transform="translate(284, 434)"><g id="cu_qtf36opbe7m0-stroke" fill="none" stroke-linecap="round" stroke-linejoin="round" stroke-miterlimit="4" stroke="#000000" stroke-width="2" stroke-dasharray="5.0, 7.0"><g><path d="M 28 10L 28 40L 28 70L 19 70L 10 70"></path></g></g></g><g id="g-root-cu_qtf36opbe7m2-stroke" data-item-order="0" transform="translate(284, 434)"><g id="cu_qtf36opbe7m2-stroke" fill="none" stroke-linecap="round" stroke-linejoin="round" stroke-miterlimit="4" stroke="#000000" stroke-width="2" stroke-dasharray="5.0, 7.0"><g><path d="M 28 10L 28 58L 28 106L 19 106L 10 106"></path></g></g></g><g id="g-root-cu_me825cpbe58k-stroke" data-item-order="0" transform="translate(284, 434)"><g id="cu_me825cpbe58k-stroke" fill="none" stroke-linecap="round" stroke-linejoin="round" stroke-miterlimit="4" stroke="#000000" stroke-width="2" stroke-dasharray="5.0, 7.0"><g><path d="M 28 10L 28 26.5L 28 130C 28.000005 136.627421 22.627422 142.000005 16.000005 142.000005L 15.9 142L 10 142"></path></g></g></g><g id="g-root-tx_solution_me825cpbbc3v-stroke" data-item-order="0" transform="translate(614, 464)"></g><g id="g-root-tx_crminteg_92rjs0pbbdov-stroke" data-item-order="0" transform="translate(110, 482)"></g><g id="g-root-tx_aitraini_me825cpbbc3w-stroke" data-item-order="0" transform="translate(614, 500)"></g><g id="g-root-tx_sentimen_dil1wgpbbdog-stroke" data-item-order="0" transform="translate(98, 518)"></g><g id="g-root-tx_optimiza_hyek0wpbbcw5-stroke" data-item-order="0" transform="translate(614, 536)"></g><g id="g-root-tx_multicha_4my1nkpbbeh5-stroke" data-item-order="0" transform="translate(110, 554)"></g><g id="g-root-tx_aipowere_dil1wgpbe6td-stroke" data-item-order="0" transform="translate(56, 38)"></g><g id="g-root-ic_clou_qtf36opb4b2a-stroke" data-item-order="5999997696" transform="translate(422, 311)"></g><g id="g-root-ic_imgu_1ursmaopb75kw-stroke" data-item-order="5999999100" transform="translate(578, 152)"></g><g id="g-root-ic_4_1qbcn34pbe58j-stroke" data-item-order="5999999100" transform="translate(278, 134)"></g><g id="g-root-ic_api_qu1k9spb8kjn-stroke" data-item-order="5999999100" transform="translate(578, 374)"></g><g id="g-root-ic_2_74jj4pbcsnc-stroke" data-item-order="5999999100" transform="translate(278, 392)"></g><g id="g-root-ic_head_4mbkkgpb5qtp-stroke" data-item-order="5999999100" transform="translate(374, 614)"></g><g id="g-root-tx_solution_6i2g0pb74zr-stroke" data-item-order="6000000000" transform="translate(614, 155)"></g><g id="g-root-tx_aiengine_v8m480pb4dft-stroke" data-item-order="6000000000" transform="translate(398, 365)"></g><g id="g-root-tx_technolo_4my1nkpbcrv3-stroke" data-item-order="6000000000" transform="translate(56, 395)"></g><g id="g-root-tx_implemen_v9v2e8pb8jre-stroke" data-item-order="6000000000" transform="translate(614, 377)"></g><g id="g-root-tx_statisti_1uqjo4gpbe7m2-stroke" data-item-order="6000000000" transform="translate(188, 137)"></g><g id="g-root-tx_challeng_dhyktcpb5q10-stroke" data-item-order="6000000000" transform="translate(410, 617)"></g></g></g></svg>